/* XPM */
static char * attack7_xpm[] = {
"64 64 11 1",
" 	c #FF00FF",
".	c #70247E",
"+	c #3C2459",
"@	c #A92A6B",
"#	c #261D45",
"$	c #00FFFC",
"%	c #FFFFFF",
"&	c #E4DFDD",
"*	c #584871",
"=	c #79609F",
"-	c #A898BD",
"                                                                ",
"                                                                ",
"                                                                ",
"                                                                ",
"                                                                ",
"                                                                ",
"                                                                ",
"                                                                ",
"                                                                ",
"                                                                ",
"                              ..                                ",
"                         +++   ..@@.                            ",
"                          +++++@@@@@..@                         ",
"                     ###++....+@@@@@@.@@@                       ",
"                      #++++...@@@@@@@@@@@@@                     ",
"                       ##+++@@@@@@@@@@@@@@@@                    ",
"                     ++..++..@@@@@@@@@@@@@@@@                   ",
"                      ++..@@@@@@.@@@@@@@@@..$$                  ",
"                    ####+..@@@.@@@@@@@@@@@@@$..                 ",
"                   ######.@@@.@$$$@@@@@@@@@@@@@                 ",
"                    +++##..@.@@@$$$##########@@@                ",
"                   ++++......@@#$$$###########@@                ",
"                     +..@@..@@@##$$############@@               ",
"                      ++@..@@@####%$####$$$%###.@               ",
"                   +++ +.+.@@@###$%%####$$%%####@               ",
"                #++++#++.+.@@#####$%%###$%%$####@               ",
"                ##++##++++.@.###&#########$#&###.               ",
"               +++++...##+..####&&#########&&###.               ",
"             ....#+++...#+..#####&#########&####.               ",
"              +........+++..#######&#&#&#&#####...    $$$$$$    ",
"              ++@@@@@.......###################.+.   $$$$$$$$   ",
"          +++#@@@@@@@@@@....##################..... $$$#$$$#$$  ",
"         +++###.@@@@@@......##################.+..+ $$##$$$##$  ",
"          ++.@@.@@@@@@@@@@...################.++++.$$####$####$ ",
"         ++@@@.@@@@@@@+++++##+##############+++....$$##$$$$$##$ ",
"        ##@@..@@@@@##+++####+#**####=#=#=#+#++++...$$#$$$$$$$#$ ",
"      ####@++@@@@@##+++###+#*##--*#######+=###+++++$$$$$$$$$$$$ ",
"     ###@@++@@@@@##+++####+#**##&&&&&&--==####+++++$$$$$$$$$$$$ ",
"     ##@@++@@@@=-**++###+#*##==#####&-###+###==++**$$$$#####$$$ ",
"       @++@@@@=--=*&&=##+#**##=--###&-##+= # -=*+*=$$$#######$$ ",
"      ##+.@@@#====+-&=&#*##-####&&&&---==  #+++  *-$$#########$ ",
"     ##++@@@+*&&*+++#--####--######--##++   ==   **$$#########$ ",
"    +#++.@@+=*&&++####=###++--*####-  ++    ==  --*$$##$#$##$#$ ",
"   +++++@@@#=*+=&-####=##*++##**##   ++      *  --$$$#$$#$$#$$  ",
"     ++.@@+#&&++--  #####=*####                ** $$$$$$$$$$$$  ",
"      +@@@##&&+  ==     *++                       $$$$$$$$$$$$  ",
"      +@@@##*=&         =*                       *$$$$$$$$$$$   ",
"       @@@##= -=       *++                        $$$$$$$$$$$   ",
"       @@@# -=         =*                         $$$$$$$$$$    ",
"       @@.#  =-        ++                        $$$$$$$$$$$    ",
"       @@.    -=       =                 $       $$$$$$$$$$     ",
"        @.            ++                 $$     $$$$$$$$$$      ",
"         .            =                   $$$$$$$$$$$$$$$       ",
"                     *+                     $$$$$$$$$$$         ",
"                    =+                                          ",
"                   *+                                           ",
"                 +*+                                            ",
"                                                                ",
"                                                                ",
"                                                                ",
"                                                                ",
"                                                                ",
"                                                                ",
"                                                                "};
