/* XPM */
static char * attack2_xpm[] = {
"64 64 11 1",
" 	c #FF00FF",
".	c #261D45",
"+	c #3C2459",
"@	c #70247E",
"#	c #A92A6B",
"$	c #00FFFC",
"%	c #FFFFFF",
"&	c #E4DFDD",
"*	c #584871",
"=	c #79609F",
"-	c #A898BD",
"                                                                ",
"                                                                ",
"                                                                ",
"                                                                ",
"                                                                ",
"                                                                ",
"                                                                ",
"                                                                ",
"                                                                ",
"                                 .                              ",
"                             +   .@@                            ",
"                         .   ++    ###                          ",
"                        ...  @+++########                       ",
"                        ..+++@@@+##########                     ",
"                         ..++@@@#############                   ",
"                        ++.+++#@##############                  ",
"                     .. ++@@+#############$####   $             ",
"                     .....+@#######@@@####$##@@@  $             ",
"                      .....@#####@@#############@               ",
"                      +....@####@@###########$####              ",
"                      +++..@@##@@####........$$###              ",
"                      ++@@@#@@@@###..........$$.###             ",
"                       ++@###@@###.$$$.......$...##             ",
"                    +++  +@@@@###..$$$$.....$.....#             ",
"                  ...+++  @+@@##...$%$$....$$%....#             ",
"                  ...+..++@+@###....%%$....$%%....#             ",
"                @@..++...+++@@#......%%....%%.....#             ",
"               ++@@++++@@..+@@@...&...........&...@             ",
"               ++++.++++@@.+@@....&&.........&&...@             ",
"                ######@@@+++@@.....&.........&....@             ",
"               ..#######@@@@@@.......&.&.&.&.....@  @@          ",
"           +++.....@#######@@@..................@@+@@           ",
"            ++...@####@@@@@@@@..................@+@@+   @       ",
"             .@##@@@#########@@.........$$.....@++++++@@@       ",
"          ++####@@######+++++..+.........$$...+++@@@@++         ",
"        .....#@@@####..+++....+.**....=.=$$$+.++++@@@@          ",
"       .....#@@####..++++...+.*..--*.....$$$=...+++++           ",
"         ###+@####.++++.....+.**..&&&&&&--$$$....+++++++        ",
"          #+@####.++++....+.*..==.....&-..$$$...==++***++       ",
"          ++###+--**&&....+.**..=--...&-..$$$...-=*++*==+       ",
"        ..+###+=--=*-&=&..*..-....&&&&---=$$$$.+++...*-=++      ",
"     ++..++##++====++++--....--......--..+$$$$.==   .**.+++     ",
"      ..++###+*&&*+++...=...++--*....-..++$$$$$==   --*.==+     ",
"       +++##+=*&&+++....=..*++..**.....++ $$$$$ *   --  -=++    ",
"       ++###+=*+=&-   .....=*.......       $$$$    **   **+*    ",
"         ##+&&+++--     ..*++.....         $$$$        -= **    ",
"         ##+&&++  ==      =* ...           $$$$       **  +     ",
"       ++##+*=&          *++                $$           **     ",
"       ++##+= -=         =*                              +      ",
"       ++##+-=           ++                                     ",
"        +@#+ =-          =                                      ",
"         @@+  -=        ++                                      ",
"          @+            =                                       ",
"                       *+                                       ",
"                   +*+=+                                        ",
"                                                                ",
"                                                                ",
"                                                                ",
"                                                                ",
"                                                                ",
"                                                                ",
"                                                                ",
"                                                                ",
"                                                                "};
