/* XPM */
static char * dying6_xpm[] = {
"64 64 9 1",
" 	c #FF00FF",
".	c #3C2459",
"+	c #70247E",
"@	c #A92A6B",
"#	c #261D45",
"$	c #584871",
"%	c #79609F",
"&	c #E4DFDD",
"*	c #A898BD",
"                                                                ",
"                                                                ",
"                                                                ",
"                                                                ",
"                                                                ",
"                                                                ",
"                                                                ",
"                                                                ",
"                                                                ",
"                                                                ",
"                                                                ",
"                                                                ",
"                                                                ",
"                                                                ",
"                                                                ",
"                                                                ",
"                                     .     .                    ",
"                                     . .  ..   .                ",
"                                     ..+  ..@  .                ",
"                                     .+++..+@@ +@@              ",
"                                   ##.+.+++++@++@@ +            ",
"                                   ###+.++@+++++@@@++           ",
"                                  ..##..++@@@@++@@@+@           ",
"                                . .++..+++@@@@@@@@@@@@          ",
"                                ..#.+++++@@@@@@@@@@@@@          ",
"                             .  ..##.++@@@@@@@@@@@@@@@+         ",
"                             ..##.@#+@@@@@@@@@@@@@@@@@+@        ",
"                             ..#+#@@@@@@@@@@@@@@@@@@@@@@        ",
"                             ..+++@@@@@@@@@@@@@@@@@@@@@@        ",
"                            ..#+++@@@@@@@@@@@@@@@@@@@@@@+       ",
"                        .  ..##@+@@@@@@@@@@@@@@@@@@@@@@@+       ",
"                        .. #@@.@@@@@@@@@@@@@@@@@@@@@@@@@+       ",
"                    .## ....+@+@@@@@@@@@@@@@@@@@@@@@@@@@@       ",
"                  +...##...++++@@@@@@@@@@@@@@@@@@@@@@@@@@       ",
"               ....#...+++..+++@@@@@@@@@@@@@@@@@@@@@@@@@@       ",
"                @@@@@@@@@....++@@++++++@@@@@@@@@@@@++++@@       ",
"               ##@@@@@@@@@@+++.++++@@@@@@@@@@@@@@@@@@@++@       ",
"           ...#####+@@@@@@@@@+.++@@@@@@@@@@@@@@@@@@@@@@@++      ",
"            ..###+@@@@@@@@@@@+..@@@@@@@@@@@@@@@@@@@@@@@@+++     ",
"             #++++@@@@@@@@@@@@+.@@@@@@@@@@@@@@@@@@@@@@@@.++     ",
"          ..@@@+++++@@@@@@@@@@#.+@@@@@@@@@@@@@@@@@@@@@@..+      ",
"         @@@@+++@@@@@@@@@@@@#####.......................+++     ",
"      @@@@@@@@@@@@@@@@@@#$##$###.$$%%%%%%%############+++@@@    ",
"   @@@@@@@@@@@@@@@@@@@.&.##.$$######%$$#..#######$###**.#+@@@@  ",
"@@@@@@@@@@@@@@@@@@@@#.$*$#$..$$.###$$$#..###########$$##*%#+@@+@",
"                                                                ",
"                                                                ",
"                                                                ",
"                                                                ",
"                                                                ",
"                                                                ",
"                                                                ",
"                                                                ",
"                                                                ",
"                                                                ",
"                                                                ",
"                                                                ",
"                                                                ",
"                                                                ",
"                                                                ",
"                                                                ",
"                                                                ",
"                                                                ",
"                                                                "};
