/* XPM */
static char * dying2_xpm[] = {
"64 64 10 1",
" 	c #FF00FF",
".	c #70247E",
"+	c #3C2459",
"@	c #A92A6B",
"#	c #00FFFC",
"$	c #261D45",
"%	c #A898BD",
"&	c #E4DFDD",
"*	c #584871",
"=	c #79609F",
"                                                                ",
"                                                                ",
"                                                                ",
"                                                                ",
"                                                                ",
"                                                                ",
"                                                                ",
"                                                                ",
"                                                                ",
"                                                                ",
"                            ...+++..@@  @                       ",
"                             ........@@@@@@                     ",
"                           ++..@@@....@@@@@@@                   ",
"                         +++++..@@@@@..@@@@@@#                  ",
"                        ++..+++@@@@@@@@@@@@@@@@                 ",
"                          +.....@@@#@@@@@@@@@@@@                ",
"                         +++..@@@@@@@@@@@@@@@#...               ",
"                       ++++...@@@.@@@@@@@@@@@##@..              ",
"                      ++++..@@@@.@@@@#@@@@@@@@##@@              ",
"                        $..@@@@.@@@@@##$$$$$$$##@@@             ",
"                      $$$+++.@..@@@$$##$$$$$$$#$$@@             ",
"                     $$$$+++...@@@$$$$#$$$$$$$$$$$@@            ",
"                       ++.....@@@$$$$$$$$$$$$$$$$$.@            ",
"                      ++...@+.@@@$$$$$$%$$$$%$$$$$$@            ",
"                        +...+.@@$$$$$$%%$$$$%%$$$$$@            ",
"                      +++++++.@.$$$$$%%$$$$$$%%$$$$.            ",
"                   $$$$$$++++..$$$$$$$$$$$$$$$$$$$$.            ",
"              @@@@@@@++...+$$..$$$$$$$&$&$&$&$$$$$$.            ",
"           @@@@@@@@@@@@@@+++$..$$$$$&$$$$$$$$$&$$$..            ",
"         @@@@@@@@@@@@@@@@@@....$$$$&&$$$$$$$$$&&$$.+            ",
"        @@@@@@.$$$$$$.@@@@@@@..$$$$&$$$$$$$$$$$&$...            ",
"       @@@@.$$$$$$$$$$$$.@@@@..$$$$$$$&$&$&$&$$$$.+......       ",
"      @@@@$$$$$$$$$$$$$$$$++@@..+$$$$$$$$$$$$$$$.++++...        ",
"     @@..$$$$$$$$$$$$$$+++++++$+$**$$$$$$$$$$+$+++....@@@..     ",
"     ...$$$$$$$$$$$$$++++++$$+$*$$%%*$$$$$$$+=$++++++++.@@@.    ",
"    ...$$$$$$$$$$$$=%*++$$$$$+$**$$&&&&&&%%==$$$$+=++**++++     ",
"    ..$$$$$$$$$$$$=%%%+$$$$+$*$$==$$$$$&%$$$+$$$$=%*+*==++      ",
"    .   $$$$$$$$$===&&+$$$$+$**$$=%%$$$&%$$+=$$$$+++$*%=+++     ",
"    .    $$$$$$$*&&*%&=$$$$*$$%$$$$&&&&%%%==$$$$$==$$***+       ",
"          $$$$$$=&&++$&%$$$$$$%%$$$$$$%%$$++$$$$$$=*+%*==       ",
"            $$$$=+=&%$%%$$$$$*$%%*$$$$%$$++$$$$$$$$*%%%=+       ",
"               *&&+%%$=      =*  **  $$$++$$$$$$$$$*****+       ",
"               *&&++==      *++         $$$$$$$$$    **         ",
"               **=&         =*             $$$$                 ",
"                %=%=*      *++                                  ",
"                 *=*       =*                                   ",
"                          *++                                   ",
"                          =*                                    ",
"                         *++                                    ",
"                         *=                                     ",
"                        *+                                      ",
"                   *+*+=+                                       ",
"                                                                ",
"                                                                ",
"                                                                ",
"                                                                ",
"                                                                ",
"                                                                ",
"                                                                ",
"                                                                ",
"                                                                ",
"                                                                ",
"                                                                ",
"                                                                "};
