/* XPM */
static char * dying4_xpm[] = {
"64 64 10 1",
" 	c #FF00FF",
".	c #00FFFC",
"+	c #3C2459",
"@	c #70247E",
"#	c #A92A6B",
"$	c #261D45",
"%	c #E4DFDD",
"&	c #584871",
"*	c #79609F",
"=	c #A898BD",
"                                                                ",
"                                                                ",
"                                                                ",
"                                                                ",
"                                                                ",
"                                                                ",
"                                                                ",
"                                                                ",
"                                                                ",
"                                               .                ",
"                                               .                ",
"                                       .  +                     ",
"                                  ++      +@                    ",
"                                  +++      @#                   ",
"                                $$+@++@@@@@@####                ",
"                                $$$@@@@#@@@@#####               ",
"                               ++$$+@@@####@@######             ",
"                               +@@+++@@############             ",
"                             $$$+@@@@@##############            ",
"                           +  $$$+@@################            ",
"                           ++$$$$@###################           ",
"                           ++$#$$####################           ",
"                           ++########################@          ",
"                          ++$#########@@@#######@@###@          ",
"                       +  ++$$#####@@@############@@@@          ",
"                       ++ $##+@###@@################@@          ",
"                   +$$ ++++@##@##@###################@          ",
"                 @+++$$+++@@@#@@@#####$$$$$$$$$$$$####          ",
"              ++++$+++@@@++@@@@@####$$$$$$$$$$$$$$$$##          ",
"               #########++++++@@###$$$$$$$$$$$$$$$$$$#          ",
"              $$##########@@$$@@##$$$$$$$$$$$$$$$$$$$#          ",
"          +++$$$$$@#########@$$@#$$$$%$$$$$$$$%$$$$$$@          ",
"           ++$$$@###########@@$@@$$$%%$$$$$$$$%%$$$$@@          ",
"            $@##@############@@@@$$$%$$$$$$$$$$%$$$$@+  @@@     ",
"         ++#############+++++$$$$$$$$$%$%$%$%$$$+@@@@@@@@@      ",
"       $$$$$########++++++$$$$$+$$$$$$$$$$$$$$$$++++++@@@       ",
"      $$$$$#######+++++$$$$$$$+$&&$$$$$$$$$$+$$$+++$$$++++      ",
"        #######$$*=&++$$$$$$+$&$$==&$$$$$$$+*$$$$$$$$$$$        ",
"       ######$$$*=&&$$$$$$$$+$&&$$%%%%%%==**$$$$$$+*++&&++      ",
"     ###### $$$*==*%%$$$$$+$&$$**$$$$$%=$$$+$$$$$$*=&+&**+      ",
"  ######      &****=%*$$$$+$$&$$*==$$$%=$$+*$$$$$$+++$&=*+      ",
"              &%%&++$%=$$$&$$=$$$$%%%%===**$$$$$$$**$$&&&+      ",
"              *%%++ $==$$$$$+==$$$$$$==$$++$$$$$$$$*&==&**      ",
"              *+*%=  *$$$$$&++==&$$$$=$$++$$$$   $$$$===*+      ",
"             &%%+==   $$$$$*&$$$&&$$$$$++           && &&+      ",
"             &%%  **    $+&++$$$$$$$$                 =*&       ",
"           ++&&*%&+&+&+&++*& $$$$$                   &&         ",
"                                                                ",
"                                                                ",
"                                                                ",
"                                                                ",
"                                                                ",
"                                                                ",
"                                                                ",
"                                                                ",
"                                                                ",
"                                                                ",
"                                                                ",
"                                                                ",
"                                                                ",
"                                                                ",
"                                                                ",
"                                                                ",
"                                                                "};
