/* XPM */
static char * dying7_xpm[] = {
"64 64 5 1",
" 	c #FF00FF",
".	c #3C2459",
"+	c #A92A6B",
"@	c #70247E",
"#	c #261D45",
"                                                                ",
"                                                                ",
"                                                                ",
"                                                                ",
"                                                                ",
"                                                                ",
"                                                                ",
"                                                                ",
"                                                                ",
"                                                                ",
"                                                                ",
"                                                                ",
"                                                                ",
"                                                                ",
"                                                                ",
"                                                                ",
"                                                                ",
"                                                                ",
"                                                                ",
"                                                                ",
"                                                                ",
"                                        .  ..+  .               ",
"                                        .@..@++ @@@             ",
"                                       ..@@@@@+@@@@ @           ",
"                                    ###@.@@+@@@@@+@+@@          ",
"                                    .##..@@+++@@@+++@@          ",
"                                   .@@..@@@+++@@@++++@+         ",
"                                 . #.@@@@@++++++@++++++         ",
"                                 ..##.@@+++++++++++++++@        ",
"                              . ##.+#@+++++++++++++++++@@       ",
"                              ..#@#++++++++++++++++++++@@       ",
"                              ..@@@++++++++++++++++++++@+       ",
"                              .#@@@++++++++++++++++++++++@      ",
"                            ..##+@+++++++++++++++++++++++@      ",
"                          ...++.+++++++++++++++++++++++++@      ",
"                     .##.....@+@++++++++++++++++++++++++++      ",
"                 +++@@@##.@@@@@@++++++++++++++++++++++++++      ",
"               #..++@@@@@@@..@@@++++++++++++++++++++++++++      ",
"            ...##.@+++++++....@@++@@@@@@++++++++++++@@@@++      ",
"             ..@@@@+++++++++@...@@@@+++++++++++++++++++@@+      ",
"           @++++@@@@@@@+++++++..@@+++++++++++++++++++++++@  @   ",
"        @++++@@@@@++++@@@+++++@..++++++++++++++++++++++++@@@@   ",
"      +++++@@@@++++++++++++++++@.++++++++++++++++++++++++.@@    ",
"   ++++++++++++++++++++++++++++#.@++++++++++++++++++++++..+++++ ",
"+++++++++++++++++++++++++++++#####.......................@@++++@",
"                                                                ",
"                                                                ",
"                                                                ",
"                                                                ",
"                                                                ",
"                                                                ",
"                                                                ",
"                                                                ",
"                                                                ",
"                                                                ",
"                                                                ",
"                                                                ",
"                                                                ",
"                                                                ",
"                                                                ",
"                                                                ",
"                                                                ",
"                                                                ",
"                                                                "};
