/* XPM */
static char * dying3_xpm[] = {
"64 64 10 1",
" 	c #FF00FF",
".	c #00FFFC",
"+	c #70247E",
"@	c #A92A6B",
"#	c #3C2459",
"$	c #261D45",
"%	c #584871",
"&	c #E4DFDD",
"*	c #A898BD",
"=	c #79609F",
"                                                                ",
"                                                                ",
"                                                                ",
"                                                                ",
"                                                                ",
"                                                                ",
"                                                                ",
"                                                                ",
"                                                                ",
"                                             .                  ",
"                            +        @                          ",
"                            ++ @   #+@@                         ",
"                            #++@@++++@@@@  @  .                 ",
"                         ####++@@@++++@@@@ @@..                 ",
"                         #++##++@@@@@.+@@@@@@.                  ",
"                          #++##@@@@@..@@@@@@@@@                 ",
"                         ###++++@@@@.@@@@@@@@@@@                ",
"                      #####+@+@@@@@@+@@@@@@@@++++               ",
"                      $###+@@@@@@@+@@@@@@@@@@@@@++              ",
"                        $++@@@@@++@@@@@@@@@@@@@@@@              ",
"                     $$$$###@@@++@@@@@@@@@@@@@@@@@@             ",
"                      $$$###+@++@@@@@@$$$$$$$$$$@@@             ",
"                       ##++++++@@@@@$$$$$$$$$$$$$@@@            ",
"                      ##+++@#++@@@$$$$$%$$$$%$$$$$@@            ",
"                        #+++#+@@@$$$$$%%$$$$%%$$$$@@            ",
"                      #######+@@$$$$$%%$$$$$$%%$$$$@            ",
"                    $$$$####++@+$$$$$$$$$$$$$$$$$$$+            ",
"                 $$$$#+++#$$+++$$$$$$$$$$$$$$$$$$$++            ",
"  @           ####$$$@@@###$+++$$$$$$&$&$&$&$$$$$$+             ",
"  @@   ### $$$$$##@@@@@@@@++++$$$$$&$$$$$$$$$&$$$+#             ",
"  @@@@  ###$$++++##@@@@@@@@@++$$$$&&$$$$$$$$$&&$+++  +++        ",
"   @@@@@@@####++++###@@@@@@@++$$$$&$$$$$$$$$$$&$+#+++++         ",
"    @@@@@@@@@@@@@@@@@@@@@@@@@++$$$$$$&$&$&$&$$$+####++          ",
"     @@@@@@@@@@@@@@@@@@@@@@@@$$#$$$$$$$$$$$$$$###++++++++++     ",
"       @@@@@@@@@@@@@@@@###$$$$#$%%$$$$$$$$$$#$########++++      ",
"        $$@@@@@@@@@@%##$$$$$#$%$$**%$$$$$$$#=$$$###$$$###       ",
"         $$$$$$$$=*%%#$$$$$$#$%%$$&&&&&&**==$$$$$#=##%%##       ",
"          $$$$$$=**=&&$$$$#$%$$==$$$$$&*$$$#$$$$$=*%#%==##      ",
"            $$$%====*&=$$$#$%%$$=**$$$&*$$#=$$$$$###$%*=#       ",
"               %&&%##$&*$$%$$*$$$$&&&&***==$$$$$$==$$%%%#       ",
"               =&&##$$**$$$$$**$$$$$$**$$##$$$$$$$=%**%==       ",
"               =#=&*$$=$$$$$##**%$$$$*$$##$$$$$$$$$$***=#       ",
"              %&&#**    $$$%##$$%%$$$$$##$$$$$$$$$$%% %%#       ",
"              %&&  ==      =%      $$$$$$$$$$$$$$$   *=%        ",
"              %%=&        %##         $$$$$$$$$$$   %%          ",
"              *= *=       =%            $$$$$$$                 ",
"               ==        %##                                    ",
"                *==    %#=%                                     ",
"                 #%#=#%=%                                       ",
"                                                                ",
"                                                                ",
"                                                                ",
"                                                                ",
"                                                                ",
"                                                                ",
"                                                                ",
"                                                                ",
"                                                                ",
"                                                                ",
"                                                                ",
"                                                                ",
"                                                                ",
"                                                                ",
"                                                                "};
