/* XPM */
static char * hp_xpm[] = {
"64 64 17 1",
" 	c #FF00FF",
".	c #080000",
"+	c #0A0001",
"@	c #EAE8CE",
"#	c #070101",
"$	c #090100",
"%	c #7F7D70",
"&	c #790000",
"*	c #1F1F1F",
"=	c #090001",
"-	c #AD0101",
";	c #E40000",
">	c #B5B39F",
",	c #000000",
"'	c #090003",
")	c #070000",
"!	c #090000",
"                                                                ",
"                                                                ",
"                                                                ",
"                                                                ",
"                                                                ",
"                                                                ",
"                                                                ",
"                                                                ",
"                                                                ",
"                                                                ",
"                                                                ",
"                                                                ",
"                                                                ",
"                                                                ",
"                                                                ",
"                                                                ",
"                                                                ",
"                                                                ",
"                                                                ",
"                                                                ",
"                                                                ",
"       ..   ..        ..   ..        ..   ..        ..   ..     ",
"      +@@# #@@$      +@@# #@@$      +@@# #@@$      +@@# #@@$    ",
"     .@%&*=*&%@+    .@%&*=*&%@+    .@%&*=*&%@+    .@%&*=*&%@+   ",
"    .@@-;-*-;-@@.  .@@-;-*-;-@@.  .@@-;-*-;-@@.  .@@-;-*-;-@@.  ",
"    .>@>@@-@@>@>., .>@>@@-@@>@>., .>@>@@-@@>@>., .>@>@@-@@>@>., ",
"    .%>-;;;;;->%#, .%>-;;;;;->%#, .%>-;;;;;->%#, .%>-;;;;;->%#, ",
"     .%>>-;->>%',,  .%>>-;->>%',,  .%>>-;->>%',,  .%>>-;->>%',, ",
"      $%&---&%),,,   $%&---&%),,,   $%&---&%),,,   $%&---&%),,, ",
"       !%&-&%.,,,,    !%&-&%.,,,,    !%&-&%.,,,,    !%&-&%.,,,, ",
"        .%&%.,,,,      .%&%.,,,,      .%&%.,,,,      .%&%.,,,,  ",
"         #*#,,,,        #*#,,,,        #*#,,,,        #*#,,,,   ",
"          =,,,,          =,,,,          =,,,,          =,,,,    ",
"           ,,,            ,,,            ,,,            ,,,     ",
"            ,              ,              ,              ,      ",
"                                                                ",
"                                                                ",
"                                                                ",
"                                                                ",
"                                                                ",
"                                                                ",
"                                                                ",
"                                                                ",
"                                                                ",
"                                                                ",
"                                                                ",
"                                                                ",
"                                                                ",
"                                                                ",
"                                                                ",
"                                                                ",
"                                                                ",
"                                                                ",
"                                                                ",
"                                                                ",
"                                                                ",
"                                                                ",
"                                                                ",
"                                                                ",
"                                                                ",
"                                                                ",
"                                                                ",
"                                                                ",
"                                                                "};
