/* XPM */
static char * enemy4_xpm[] = {
"64 64 129 2",
"  	c #FF00FF",
". 	c #DF7024",
"+ 	c #E56E2A",
"@ 	c #DD7722",
"# 	c #FFDB53",
"$ 	c #CE7913",
"% 	c #664488",
"& 	c #3D1B5F",
"* 	c #CE9B13",
"= 	c #FFB762",
"- 	c #CC5533",
"; 	c #442244",
"> 	c #774488",
", 	c #8F6DB1",
"' 	c #BC4512",
") 	c #DC6532",
"! 	c #774499",
"~ 	c #7E6DB1",
"{ 	c #2C1B5F",
"] 	c #D6D670",
"^ 	c #E07A25",
"/ 	c #AB3423",
"( 	c #FFFFC2",
"_ 	c #FFFFFF",
": 	c #FFF136",
"< 	c #A13B4C",
"[ 	c #9B3546",
"} 	c #9A3401",
"| 	c #DC7643",
"1 	c #AA3333",
"2 	c #664477",
"3 	c #5566DD",
"4 	c #3D1B4E",
"5 	c #FFFFD0",
"6 	c #CB7610",
"7 	c #EDBA87",
"8 	c #AB7845",
"9 	c #75428A",
"0 	c #622F00",
"a 	c #FFBF8C",
"b 	c #FFC45E",
"c 	c #BB5533",
"d 	c #CB5443",
"e 	c #9764A8",
"f 	c #5E4D91",
"g 	c #38276B",
"h 	c #DCCB98",
"i 	c #FFFFE1",
"j 	c #FFFFA2",
"k 	c #EDDC54",
"l 	c #7261A5",
"m 	c #FFEE33",
"n 	c #51400D",
"o 	c #D6810A",
"p 	c #FFE972",
"q 	c #FBF334",
"r 	c #FB9573",
"s 	c #9A8956",
"t 	c #975375",
"u 	c #773355",
"v 	c #9A3445",
"w 	c #BA5465",
"x 	c #AA4455",
"y 	c #7B598C",
"z 	c #774477",
"A 	c #4E1B4E",
"B 	c #D37E4B",
"C 	c #D6811B",
"D 	c #FFEE66",
"E 	c #FFE983",
"F 	c #571335",
"G 	c #6B1600",
"H 	c #FBD9FF",
"I 	c #FFFFA6",
"J 	c #FFEEEE",
"K 	c #BFAE00",
"L 	c #D7B51C",
"M 	c #FFE34A",
"N 	c #7D4A6C",
"O 	c #AEAEBF",
"P 	c #983A59",
"Q 	c #8A4174",
"R 	c #7C488E",
"S 	c #6D4FA9",
"T 	c #BC6745",
"U 	c #963859",
"V 	c #883F74",
"W 	c #7A468E",
"X 	c #6B4DA9",
"Y 	c #2C000A",
"Z 	c #943659",
"` 	c #863D74",
" .	c #78448E",
"..	c #694BA9",
"+.	c #6E1900",
"@.	c #411F41",
"#.	c #4F1C3E",
"$.	c #7E4B5C",
"%.	c #923459",
"&.	c #843B74",
"*.	c #76428E",
"=.	c #6749A9",
"-.	c #222233",
";.	c #F5B15C",
">.	c #EEDD66",
",.	c #FFFFE9",
"'.	c #D26C4A",
").	c #4F1C60",
"!.	c #A43E1C",
"~.	c #7D4A8E",
"{.	c #754286",
"].	c #645375",
"^.	c #443355",
"/.	c #A35F0A",
"(.	c #CC8833",
"_.	c #AE9D26",
":.	c #E7E781",
"<.	c #241335",
"[.	c #913C4D",
"}.	c #6B1627",
"|.	c #FFD883",
"1.	c #C5701B",
"2.	c #BB4433",
"3.	c #323243",
"4.	c #202034",
"5.	c #8D3800",
"6.	c #736284",
"7.	c #332244",
"8.	c #202031",
"                                                                                                                                ",
"                                                                                                                                ",
"                                                                                                                                ",
"                                                                                                                                ",
"                                                                                                                                ",
"                                                                                                                                ",
"                                                                                                                                ",
"                                                                                                                                ",
"                                                                                                                                ",
"                                                                                                                                ",
"                                                                                                                                ",
"                                                    .                                                                           ",
"                                                                                        . .                                     ",
"                                                            +                             .                                     ",
"                                                      @ @               # # $                                                   ",
"                                                    @ @ @     % % &   * # #       $ .                                           ",
"                                                    @ = @   % - - % ; * *           . .                                         ",
"                                                      @   > - - % , ;               . . .     .   .                             ",
"                                                          > ' ) ! ! ~ { ] ] #     * ^ ^ ^                                       ",
"                                                        > / ) ' ! ! ~ { ] ( _ _ _ * ^ : ^                                       ",
"                                                      > / / ) ! ! ! ~ ~ { ( _ _ _ _ : : :           .                           ",
"                                                      > / / ) ! ! ! ~ ~ { ( _ _ # # : : :                                       ",
"                                                    < [ } | 1 > > > 2 3 2 4 5 5 6 6 : :                                         ",
"                                                    < [ } | > > > > 2 2 3 4 7 8 6 6 ^     : : ^                                 ",
"                                                  9 [ [ } | > > > > 2 2 3 2 0 8 6 6         : ^ ^                               ",
"                                                  9 [ [ } a > > > > 2 2 2 3 0 8 6 b :                                           ",
"                                                > c / / / d > > > > > > > e f g h i j k k                                       ",
"                                                > c / / d d > > > > > > > > l g i i j k k k                                     ",
"                                              > c c / / m d > > > > > > > > l f n h o o p p ^                                   ",
"                                          q   r c c / / m / > > > : m > > > f l n s o o o o :     ^                             ",
"                                        : : t m m u v w m x y m m m > > > > z 3 z A B B C C ^ ^ ^ ^                             ",
"                                      : _ _ t u m m v w m x m m m m > > D > z z 3 A B B E C ^ : ^                               ",
"                                      : _ _ m F m m v w m x m m m m D D D D z z 3 z G B C E : ^                                 ",
"                                          : m m m m v m m x m m m H I I D D z z z 3 G B                                         ",
"                                        : : J J m K L M L N O _ _ _ ( ] ] ] P Q R S f g T         .                             ",
"                                        : : J J J m L M M M m _ _ _ ( ( ] ] U V W X l g T T                                     ",
"                                        : : m J J J N M M M _ _ _ _ ( ( ] Y Z `  ...l f +.T .                                   ",
"                                        @.: m m J J #.M M M _ _ _ _ ( ] Y $.%.&.*.=.f l +.                                      ",
"                                        -.1 ;.;.;.;.2 >.2 >.,.,.,.,.'.).!.~.{.{.{.{.].3 ].^.                                    ",
"                                          -./.(././._.>.2 2 :.:.:.:.).!.~.~.{.{.{.{.3 3 ].<.                                    ",
"                                            -./.(.(._.I 2 2 {.{.{.{.~.~.~.~.[.[.[.[.].].^.<.                                    ",
"                                              -./.(.>.I 2 2 {.{.{.{.!.!.!.!.[.[.}.}.<.<.<.                                      ",
"                                                -.1 |.|.1.1.2.2.2.2.> > 3.-.4.4.4.                                              ",
"                                                  -.5.1.1.5.6.6.7.7.-.-.-.                                                      ",
"                                                    8.8.8.8.7.7.7.                                                              ",
"                                                                                                                                ",
"                                                                                                                                ",
"                                                                                                                                ",
"                                                                                                                                ",
"                                                                                                                                ",
"                                                                                                                                ",
"                                                                                                                                ",
"                                                                                                                                ",
"                                                                                                                                ",
"                                                                                                                                ",
"                                                                                                                                ",
"                                                                                                                                ",
"                                                                                                                                ",
"                                                                                                                                ",
"                                                                                                                                ",
"                                                                                                                                ",
"                                                                                                                                ",
"                                                                                                                                ",
"                                                                                                                                "};
