/* XPM */
static char * enemy6_xpm[] = {
"64 64 122 2",
"  	c #FF00FF",
". 	c #DF7024",
"+ 	c #DD7722",
"@ 	c #FFF136",
"# 	c #E07A25",
"$ 	c #DD6622",
"% 	c #D6810A",
"& 	c #FFE972",
"* 	c #7D4A8E",
"= 	c #4F1C60",
"- 	c #774488",
"; 	c #CC6622",
"> 	c #B43D00",
", 	c #FBEA62",
"' 	c #AB3423",
") 	c #CC5533",
"! 	c #774499",
"~ 	c #9764B9",
"{ 	c #553366",
"] 	c #BFAE6A",
"^ 	c #FFFFEA",
"/ 	c #FFFFD8",
"( 	c #E7E770",
"_ 	c #CB5443",
": 	c #DB7520",
"< 	c #75428A",
"[ 	c #8E4A6C",
"} 	c #A83131",
"| 	c #DC8776",
"1 	c #9A4534",
"2 	c #5566DD",
"3 	c #774466",
"4 	c #572446",
"5 	c #976486",
"6 	c #9E7C38",
"7 	c #823E60",
"8 	c #FFF338",
"9 	c #FFD0BF",
"0 	c #FFE4A0",
"a 	c #FBF334",
"b 	c #FFEE33",
"c 	c #CE846B",
"d 	c #B03524",
"e 	c #A34E0A",
"f 	c #CC7733",
"g 	c #AE8C26",
"h 	c #EECC66",
"i 	c #674589",
"j 	c #8765A9",
"k 	c #483748",
"l 	c #FFFFFF",
"m 	c #FFFFBF",
"n 	c #8C4229",
"o 	c #E76C5B",
"p 	c #F5A05C",
"q 	c #FEDC43",
"r 	c #CD7834",
"s 	c #DEBC23",
"t 	c #FFCDB4",
"u 	c #FFFFA6",
"v 	c #A695A6",
"w 	c #F7E76B",
"x 	c #FFDC89",
"y 	c #FFF2F2",
"z 	c #786767",
"A 	c #9D5937",
"B 	c #CEAC13",
"C 	c #FFEC53",
"D 	c #FBD9FF",
"E 	c #FFC873",
"F 	c #FBB795",
"G 	c #DD8822",
"H 	c #DD8833",
"I 	c #B87E2B",
"J 	c #2F1E1E",
"K 	c #7B598C",
"L 	c #9D4800",
"M 	c #784578",
"N 	c #AE3726",
"O 	c #E56E5D",
"P 	c #332244",
"Q 	c #774477",
"R 	c #4A395B",
"S 	c #1C0B2D",
"T 	c #D7B51C",
"U 	c #342312",
"V 	c #4D092B",
"W 	c #844062",
"X 	c #5B6CE3",
"Y 	c #4D1A2B",
"Z 	c #A16E7F",
"` 	c #FFE34A",
" .	c #BFAE9D",
"..	c #6A2648",
"+.	c #D37E4B",
"@.	c #542154",
"#.	c #845162",
"$.	c #370437",
"%.	c #766554",
"&.	c #222233",
"*.	c #EEBB66",
"=.	c #371548",
"-.	c #AA3333",
";.	c #723F94",
">.	c #7F6EB2",
",.	c #625195",
"'.	c #3B2A3B",
").	c #FFFBA6",
"!.	c #6E4C7F",
"~.	c #8855AA",
"{.	c #2B1A2B",
"].	c #332233",
"^.	c #903B5D",
"/.	c #7F4C5D",
"(.	c #2B1A5E",
"_.	c #AE7B26",
":.	c #4E1B5F",
"<.	c #481526",
"[.	c #CC5522",
"}.	c #626273",
"|.	c #323243",
"1.	c #202034",
"                                                                                                                                ",
"                                                                                                                                ",
"                                                                                                                                ",
"                                                                                                                                ",
"                                                                                                                                ",
"                                                                                                                                ",
"                                                                                                                                ",
"                                                                                                                                ",
"                                                                                                                                ",
"                                                                                                                                ",
"                                                                                                                                ",
"                                                        .                                                                       ",
"                                                                                          .                                     ",
"                                                                +                                                               ",
"                                                      . .                 @ @ #                                                 ",
"                                                    . . $ $             % & %         # .                                       ",
"                                                    . .         * * =   %           # # . .                                     ",
"                                                              - ; ; * =               # . . .   .                               ",
"                                                            - > ; * * =     , , @ @ @ # . . .                                   ",
"                                                          - ' ' ) ! ~ ! { ] ^ ^ / ( ( ( # #                                     ",
"                                                          - ' _ ) ! ! ~ { ^ ^ ^ / / ( ( @ #   @       #                         ",
"                                                        - ' ' _ ! ! ! ~ { { ^ ] : : : : @ #                                     ",
"                                                      < ' ' ' _ ! ! ! ! { { ] ] : : : : # #                                     ",
"                                                      [ } } | 1 - - - - 2 3 4 5 % % % % 6       # #                             ",
"                                                    [ 7 } } | 1 - - - - 3 2 4 5 & & % %       8 @ #                             ",
"                                                    [ 7 } } 9 1 - - - - 3 2 3 4 ( ( ( / / 0                                     ",
"                                            a   b [ 7 7 } } | 1 - - @ @ 3 3 2 4 ( ( / / / / 8                                   ",
"                                          @ @     c d d e f f - g h h - i i j i k l m m # # # @                                 ",
"                                          #     n c o d e p f - g g - - i q i j k l r r # # # @                                 ",
"                                              @ n n d d e p f - - - - - i q s j k k r r # @ @ #       #                         ",
"                                            @ @ t c o d e p e - - h u u i i q i v k r r @ @ @         # .                       ",
"                                          w x l y z A A B C - - D D D D E { { { 2 3 4 5 @ @ @           .                       ",
"                                          w x l y y F A B C - C G D G G E H { { 3 2 4 5 # @ #                                   ",
"                                          w I I J z l A C C B C G K K G H H { L 3 2 3 4 # # @ @ .                               ",
"                                            I I J J l A C C B - K K K G H { { L 3 3 2 4 # # #                                   ",
"                                          M N O P p P f b Q Q Q R R S T U U V W - - X - Y Z           .                         ",
"                                          M N N P P p e b Q Q Q R S S `  .U ..W - - - X Y Z   +.                                ",
"                                          @.N N e P P P b Q Q Q S S ` ` U U W W - - - X #.Y   +..                               ",
"                                          @.O N e e P P b Q Q $.S S S S U %.W W - - - - Z Y     .                               ",
"                                          &.' _ f e e e *.- - - =.=.=.=.-.- - - ;.;.;.;.>.,.'.                                  ",
"                                            &.' f f f f ).- - - !.!.!.!.- - - - ;.;.;.~.>.,.{.                                  ",
"                                              &.].f f p ).- - - ^.^.^.^.- -.-.-././././.,.(.{.                                  ",
"                                                ].].e p *._._._.^.^.^.^.-.- - :.<.<.<.<.(.(.                                    ",
"                                                    &.-.[.[.[.}.- |.|.&.1.1.1.1.1.                                              ",
"                                                      &.&.&.&.&.&.&.&.                                                          ",
"                                                                                                                                ",
"                                                                                                                                ",
"                                                                                                                                ",
"                                                                                                                                ",
"                                                                                                                                ",
"                                                                                                                                ",
"                                                                                                                                ",
"                                                                                                                                ",
"                                                                                                                                ",
"                                                                                                                                ",
"                                                                                                                                ",
"                                                                                                                                ",
"                                                                                                                                ",
"                                                                                                                                ",
"                                                                                                                                ",
"                                                                                                                                ",
"                                                                                                                                ",
"                                                                                                                                ",
"                                                                                                                                "};
