/* XPM */
static char * enemy3_xpm[] = {
"64 64 106 2",
"  	c #FF00FF",
". 	c #DF7024",
"+ 	c #DD7722",
"@ 	c #FFF338",
"# 	c #E07A25",
"$ 	c #7D4A7D",
"% 	c #4F1C4F",
"& 	c #B77351",
"* 	c #FFB762",
"= 	c #674589",
"- 	c #BC4523",
"; 	c #DC6543",
"> 	c #432143",
", 	c #916F91",
"' 	c #BF9D15",
") 	c #774488",
"! 	c #8765A9",
"~ 	c #674567",
"{ 	c #FFFB73",
"] 	c #FFB953",
"^ 	c #CE7913",
"/ 	c #9D3700",
"( 	c #FFFFFB",
"_ 	c #FFFFFF",
": 	c #FFF136",
"< 	c #AB3423",
"[ 	c #DC6532",
"} 	c #785FBA",
"| 	c #5E45A0",
"1 	c #4C3C5D",
"2 	c #CB5443",
"3 	c #BC4512",
"4 	c #AA9ABB",
"5 	c #AA3333",
"6 	c #DD8822",
"7 	c #75428A",
"8 	c #5B6CE3",
"9 	c #4D1A2B",
"0 	c #A16E7F",
"a 	c #BF8C48",
"b 	c #FFC862",
"c 	c #FFEAA6",
"d 	c #845162",
"e 	c #AE3726",
"f 	c #FFE994",
"g 	c #B4812C",
"h 	c #8F6DB1",
"i 	c #664488",
"j 	c #3D1B5F",
"k 	c #EEAA33",
"l 	c #7C4900",
"m 	c #E56E5D",
"n 	c #FFE45C",
"o 	c #B4920A",
"p 	c #883366",
"q 	c #CEAC13",
"r 	c #FFEC53",
"s 	c #887799",
"t 	c #483759",
"u 	c #6C398E",
"v 	c #824FA4",
"w 	c #D6810A",
"x 	c #FFE972",
"y 	c #FFEE33",
"z 	c #B53E3E",
"A 	c #C8B7D9",
"B 	c #3E2D3E",
"C 	c #B03928",
"D 	c #A42D1C",
"E 	c #E8E882",
"F 	c #FFFFB0",
"G 	c #FFFFB6",
"H 	c #FFF57E",
"I 	c #754275",
"J 	c #794679",
"K 	c #7E5C8F",
"L 	c #D6D670",
"M 	c #FFFFC2",
"N 	c #FFFFEA",
"O 	c #BFBF6A",
"P 	c #5566DD",
"Q 	c #865375",
"R 	c #461335",
"S 	c #E56E2A",
"T 	c #C64F3E",
"U 	c #993366",
"V 	c #281728",
"W 	c #D25B4A",
"X 	c #2C0A3D",
"Y 	c #AF8D16",
"Z 	c #222233",
"` 	c #AE7B15",
" .	c #FFFB95",
"..	c #884466",
"+.	c #664477",
"@.	c #903B5D",
"#.	c #323243",
"$.	c #EEBB55",
"%.	c #736284",
"&.	c #332244",
"*.	c #BB4433",
"=.	c #5D4C6E",
"-.	c #402F51",
";.	c #261537",
">.	c #3D1B4E",
",.	c #202034",
"                                                                                                                                ",
"                                                                                                                                ",
"                                                                                                                                ",
"                                                                                                                                ",
"                                                                                                                                ",
"                                                                                                                                ",
"                                                                                                                                ",
"                                                                                                                                ",
"                                                                                                                                ",
"                                                                                                                                ",
"                                                    .                                                                           ",
"                                                                                        . .                                     ",
"                                                            +                             .                                     ",
"                                                      . .               @ @ #                                                   ",
"                                                    . . .     $ $ %   & @ @       # .                                           ",
"                                                    + * +   = - ; = > , '           # #                                         ",
"                                                      +   ) - ; = ! >               # # #     .   .                             ",
"                                                          ) - ; = ! ~ > { { ]     ^ # # #                                       ",
"                                                        ) / ; - = = , > { ( _ _ _ ^ # : #                                       ",
"                                                      ) < < [ ) ) ) } | 1 _ _ _ _ _ : : :           .                           ",
"                                                      ) < < [ ) ) ) | } 1 _ _ _ ] ] : : :                                       ",
"                                                    ) < < 2 3 ) ) ) | } 1 1 _ _ ^ ^ : :                                         ",
"                                                    ) < < 2 ) ) ) ) | | 4 1 ] ^ ^ ^ #     : : #                                 ",
"                                                  ) 5 5 5 6 7 7 7 7 ) ) 8 ) 9 0 a a         : # #                               ",
"                                                  ) 5 5 5 b 7 7 7 7 ) ) ) 8 9 0 a c :                                           ",
"                                                ) 5 5 5 5 6 7 7 7 7 ) ) ) 8 d 9 c _ _ : :                                       ",
"                                                ) 5 5 5 6 6 7 7 7 7 ) ) ) ) 0 9 _ _ _ : : :                                     ",
"                                              ) 5 5 e e f g 7 7 7 7 7 7 7 7 h i j k # # : : #                                   ",
"                                              ) 5 5 e e f l 7 7 7 7 7 7 7 7 i h j k # # # # :     #                             ",
"                                            ) 5 5 5 e m f l 7 7 7 7 7 7 7 7 i h i j # # # # # # # #                             ",
"                                            ) 5 5 5 e m f l 7 7 7 7 7 7 7 7 i i h j # # : # # : #                               ",
"                                          ) n n o o p q r p ) ) ) ) s s t t u u v u 9 0 w x : #                                 ",
"                                          ) n n n o p r r p ) ) ) ) s t y y z u u v 9 0                                         ",
"                                        ) 5 n _ _ n q r q p ) ) ) ) y y y y z u u v d 9 w         #                             ",
"                                        ) 5 n _ _ _ r r p p ) ) ) : A A A y z u u u 0 9 w w                                     ",
"                                        B C D E F F G H I J K K L M N N N O 5 ) ) ) P Q R Q S                                   ",
"                                        B T D D E F G H J J K L M M N N O U ) ) ) ) Q P R                                       ",
"                                        V C W D D E H H J J X L M M N O U U ) ) ) ) Q P Q R                                     ",
"                                          V D W D D Y H J J X L L L O U U U ) ) ) ) P P Q R                                     ",
"                                            Z - ; ; `  .....+.+.+.+.@.@.@.@.5 5 5 5 ) ) #.Z                                     ",
"                                              Z - ; $. .....+.+.+.+.@.@.@.@.%.%.&.&.Z Z Z                                       ",
"                                                Z - $.$.` ` *.*.*.*.=.=.-.;.&.&.&.                                              ",
"                                                  Z ..` ` ..+.+.>.>.;.;.;.                                                      ",
"                                                    ,.,.,.,.,.,.,.                                                              ",
"                                                                                                                                ",
"                                                                                                                                ",
"                                                                                                                                ",
"                                                                                                                                ",
"                                                                                                                                ",
"                                                                                                                                ",
"                                                                                                                                ",
"                                                                                                                                ",
"                                                                                                                                ",
"                                                                                                                                ",
"                                                                                                                                ",
"                                                                                                                                ",
"                                                                                                                                ",
"                                                                                                                                ",
"                                                                                                                                ",
"                                                                                                                                ",
"                                                                                                                                ",
"                                                                                                                                ",
"                                                                                                                                ",
"                                                                                                                                "};
