/* XPM */
static char * enemy2_xpm[] = {
"64 64 123 2",
"  	c #FF00FF",
". 	c #DF7024",
"+ 	c #E56E2A",
"@ 	c #FFF338",
"# 	c #FFFB73",
"$ 	c #FFEE33",
"% 	c #DD7722",
"& 	c #774488",
"* 	c #784567",
"= 	c #542143",
"- 	c #FFFFFF",
"; 	c #FFB762",
"> 	c #9D3700",
", 	c #A26F91",
"' 	c #261500",
") 	c #FFFFFB",
"! 	c #FFF136",
"~ 	c #EC7553",
"{ 	c #AC3513",
"] 	c #CC5533",
"^ 	c #6E4597",
"/ 	c #845BAD",
"( 	c #3C2B65",
"_ 	c #FFDC92",
": 	c #FFCA53",
"< 	c #E07A25",
"[ 	c #AF7E34",
"} 	c #C0864C",
"| 	c #CE8A13",
"1 	c #9A89C3",
"2 	c #270000",
"3 	c #FFE4AA",
"4 	c #AA3333",
"5 	c #9A3412",
"6 	c #A56194",
"7 	c #7F3B6E",
"8 	c #5B6CE3",
"9 	c #554477",
"0 	c #BFAE37",
"a 	c #FFEE77",
"b 	c #FFEC53",
"c 	c #DC7654",
"d 	c #FFFFB7",
"e 	c #CEAC13",
"f 	c #FFBF9D",
"g 	c #8D3800",
"h 	c #C5700A",
"i 	c #754286",
"j 	c #75428A",
"k 	c #664499",
"l 	c #8F6DC2",
"m 	c #3D1B70",
"n 	c #FFDB53",
"o 	c #CE9B13",
"p 	c #FFD872",
"q 	c #442244",
"r 	c #664477",
"s 	c #A83142",
"t 	c #744185",
"u 	c #7D4A7D",
"v 	c #5566DD",
"w 	c #3E2D60",
"x 	c #C6710B",
"y 	c #F49F39",
"z 	c #6C5B8E",
"A 	c #260437",
"B 	c #4F1C4F",
"C 	c #AC3546",
"D 	c #222233",
"E 	c #663366",
"F 	c #764387",
"G 	c #AB3423",
"H 	c #CB5443",
"I 	c #AB6745",
"J 	c #BF7B04",
"K 	c #FFD962",
"L 	c #BB4433",
"M 	c #845162",
"N 	c #4D1A2B",
"O 	c #3E1C4F",
"P 	c #A42D1C",
"Q 	c #6C4A7D",
"R 	c #774466",
"S 	c #4E1B3D",
"T 	c #A06D8F",
"U 	c #FFEA62",
"V 	c #AE8C04",
"W 	c #FFF2D0",
"X 	c #A16E7F",
"Y 	c #D25B4A",
"Z 	c #562367",
"` 	c #260000",
" .	c #AE7B6A",
"..	c #621E00",
"+.	c #370448",
"@.	c #260400",
"#.	c #332233",
"$.	c #DC6543",
"%.	c #BC4523",
"&.	c #9D3715",
"*.	c #801A00",
"=.	c #150000",
"-.	c #FBD984",
";.	c #2D1C2D",
">.	c #EC8642",
",.	c #351346",
"'.	c #9D7B26",
").	c #392839",
"!.	c #AC4602",
"~.	c #5B395B",
"{.	c #D46E4C",
"].	c #755386",
"^.	c #2D0B2D",
"/.	c #713E71",
"(.	c #202034",
"_.	c #9D4800",
":.	c #FFC873",
"<.	c #DC6532",
"[.	c #BC4512",
"}.	c #323243",
"|.	c #DD8833",
"1.	c #433254",
"2.	c #231234",
"                                                                                                                                ",
"                                                                                                                                ",
"                                                                                                                                ",
"                                                                                                                                ",
"                                                                                                                                ",
"                                                                                                                                ",
"                                                                                                                                ",
"                                                                                                                                ",
"                                                                                                                                ",
"                                                                                                                                ",
"                                                                                                                                ",
"                                                            .                                                                   ",
"                                                                                        .                                       ",
"                                                                                                                                ",
"                                                    . .                       +                                                 ",
"                                                      .                     @ +         . .                                     ",
"                                                                                          . .                                   ",
"                                                                        # $ $               .     .                             ",
"                                                          % %   & * = # # - $   $ $ $ $                                         ",
"                                                        . ; % & > , * ' ) - $ $ - - - $ $                                       ",
"                                                        ! ~ & { ] ^ / ( - - _ - - - - : : <     <   <                           ",
"                                                          & { { ] ^ / ( ( _ [ - } | | | : <                                     ",
"                                                          & { ] { ^ ^ 1 ( - [ } } |     | <                                     ",
"                                                        & { { ] & ^ ^ 1 ( 2 [ } 3 : :     <         <                           ",
"                                                      & 4 5 5 6 7 & & & 8 9 0 a a b b b           !                             ",
"                                                      & 4 5 c 7 7 & & & 8 9 9 a d - - b b !                                     ",
"                                                    & 4 4 5 c 7 7 & & & & 9 9 a d - b e b ! !                                   ",
"                                                    & 4 4 5 f 7 7 & & & & 9 9 9 d b e e e ! <                                   ",
"                                                  & 4 4 4 g h i i j j j j k l m $ n o o o                                       ",
"                                                  & 4 4 4 h h i i j j j j k l k m o o n n               <                       ",
"                                                j 4 4 4 4 p h i i j j j j k k l m o n n n                                       ",
"                                                j 4 4 4 4 p h i i j j j j k k l k q n n o < <                                   ",
"                                              r 4 s s 5 5 ! t t t & & & & u u u v w x y x < ! !                                 ",
"                                              r 4 s s 5 c ! t t t & & & & u u u v z w x x <                                     ",
"                                            r 4 A s s 5 c ! t t t & & & & B B u u z w x x                                       ",
"                                            r 4 A C s 5 f ! t t t & & & D B B E u z z w x < <                                   ",
"                                            F G H I I J K L & & & M M N N O O P Q R v S T U V +                                 ",
"                                          F G G H W I J K L & & & M N X X Y O P Q R v R S U U +                                 ",
"                                          F G G Z I W J K L & & & `  .- - Y O P Q R R v S U U + +                               ",
"                                          Z G G G ..I J K & & & +. .- -  .O P Q Q R R v R @.V                                   ",
"                                          #.$.%.%.&.*.=.-.& & ;.;.>.>.>.,.4 & & & u u u v q       %                             ",
"                                          #.%.$.$.&.&.'.-.& & ).;.,.,.,.!.& & & & u u u v ~.q                                   ",
"                                            #.%.$.{.{.'.- & & & & ].].].].& & & & u u v v ~.^.                                  ",
"                                              #.#.{.{.-.- & & & & ].].].].4 4 4 4 /./.u u q ^.                                  ",
"                                                (.D _.:.:.<.<.<.[.4 4 4 4 & & }.}.(.(.(.(.(.                                    ",
"                                                    D _.|.<.[.1.1.}.}.D D D D D D                                               ",
"                                                      D D 2.2.2.2.D D                                                           ",
"                                                                                                                                ",
"                                                                                                                                ",
"                                                                                                                                ",
"                                                                                                                                ",
"                                                                                                                                ",
"                                                                                                                                ",
"                                                                                                                                ",
"                                                                                                                                ",
"                                                                                                                                ",
"                                                                                                                                ",
"                                                                                                                                ",
"                                                                                                                                ",
"                                                                                                                                ",
"                                                                                                                                ",
"                                                                                                                                ",
"                                                                                                                                ",
"                                                                                                                                "};
