/* XPM */
static char * end_door1_xpm[] = {
"64 64 26 1",
" 	c None",
".	c #687078",
"+	c #282830",
"@	c #484848",
"#	c #303438",
"$	c #606068",
"%	c #505458",
"&	c #384040",
"*	c #202020",
"=	c #707878",
"-	c #788480",
";	c #302010",
">	c #402810",
",	c #483018",
"'	c #583418",
")	c #382410",
"!	c #889090",
"~	c #603C20",
"{	c #684020",
"]	c #704820",
"^	c #583818",
"/	c #906028",
"(	c #785028",
"_	c #90A0A0",
":	c #E8DC80",
"<	c #C89C70",
".......+..+.@#............$%%@@&&@@%%$...........#@.+..+.......@",
".......*%...@@.....$%&+#@%.=--------=$%@##&%$....@@...%*........",
"...@#+**+@.@#....$&+#@=------------------$@#+%$...#@.@+**+#@...@",
"+**%...@**@...$#&%-----$-%---%%&.-&%-%&%.----=%&#$..@**@...%**+.",
".$#..@+.+..$@&%---------------------------%.-----%&@..+.+@..#$..",
".@@....@#..&@$--%------=.$&#+******+#%$.=----$-%--$@%..@....@@..",
"+@..%#+..&#-----$--$&+*;>,''''')*''''',>;*+&$--$----$#&.+#%..@+.",
"#.......#&$-------#+*;,'''''''')*''''''''>;*+.-------$&#......##",
".......&=!-$&$-$#*,''''~{]]]]>')*'>]]]]{~'''')*#$-$&--!=&.......",
".....%&!!-%---@),'^>{/]^>]/]^>')*'>^]/]>^//{>'',)@---%-!$&%.....",
"%...$&%!--&--@*'',>^///>^///(>')*'>(///^>///^,,''*@-%&--!%&$..%#",
"+..@&=_----$+>',,{)(:</)(::/(,')*',(/<:():<:(]{,,'>+----!_=&..+$",
"@..&$!_----+;'',]]>^<:(>^<<(]>')*'>](:<^><:<^]]],'';=--$-_!$$.@@",
"..$$!_-&.-@,',,]]]]^>)>]^>)>^,')*',^>)>^]))>^]]]],,'*@-.%-_!&$..",
".$#!_----@*',~]>))^^>)>^^>)>^,')*',^>)>^^))>^>))>]~,,*@----_%#$.",
".%&_!-%-=+),~]^]//^>]/]^>]/]^,')*',^]/]>^//]>]//]^]~')+=$%-!=&%.",
"$#$_-$-=+)'~]]);//)(;/;)(;/;('')*''(;/;()//;(;//;)]]'')+--$-!$#$",
"%&=!-&%@*,'{]]):<:)(:</)(::/(,')*',(/<:():<:(/:<:)]]'',*-%%-_=&%",
"&%!--%-*>'']]]^]/(^>]/]^>](]>'')*''>]/]>^(/]>](/]^]]{''>$-%-_!%&",
"#=_---=>''~]]]]]]]]]]]]]]]]]]'')*'']]]]]]]]]]]]]]]]]]~''#=-$!_=#",
"&-_%--.,''^))>^>))^^>)>^^>)>^'')*''^>)>^^))>^>))>^>)>^''+.---_-&",
"%!_-&-@''>^///>///>^///>^///('')*''(///^>///^////>///^>'*@-&-_!%",
"$_!%$-@'')(//;);//)(;/;)(;/;('')*''(;/;()//;(;//;);/;()';@-$-!_$",
"=_-$%-#''>^:<(><:<>^<:(>^<<(]>')*'>](:<^><:<^(<:<>(<<^>'>#-%--_=",
"-_----+'']^))>]>))]^>)>]^>)>^'')*''^>)>^]))>^>))>]>)>^]''+----_-",
"!_----*'']]]]]]]]]]]]]]]]]]]]'')*'']]]]]]]]]]]]]]]]]]]]''*--%-_!",
"!_----*''^>//]^]//^>]/]^>]/]^'')*''^]/]>^//]>]//]^]/]>^''*--%-_!",
"!_----*''>^///>///>^///>^///('')*''(///^>///^////>///^>''*--.-_!",
"!_----*'')(<:/):<:)(:</)(::/(,')*',(/<:():<:(/:<:)/::()''*----_!",
"!_-&--*''^>/(]^]/(^>]/]^>](]>'')*''>]/]>^(/]>](/]^](]>^''*--%-_!",
"!_----*'']^))>]>))]^>)>]^>)>^'')*''^>)>^]))>^>))>]>)>^]''*----_!",
"!_----*'']^))>^>))^^>)>^^>)>^'')*''^>)>^^))>^>))>^>)>^]''*--%-_!",
"!_----*''^>//]^]//^>]/]^>]/]^'')*''^]/]>^//]>]//]^]/]>^''*----_!",
"!_-%--*'')(//;);//)(;/;)(;/;('')*''(;/;()//;(;//;);/;()''*--%-_!",
"!_----*',)(<:/):<:)(:</)(::/(,')*',(/<:():<:(/:<:)/::(),'*--%-_!",
"!_-$--*',^>/(]^]/(^>]/]^>](]>'')*''>]/]>^(/]>](/]^](]>^,'*--$-_!",
"!_----*',]]]]]]]]]]]]]]]]]]]]'')*'']]]]]]]]]]]]]]]]]]]],'*--%-_!",
"!_-$--*'>]^))>^>))^^>)>^^>)>^'')*''^>)>^^))>^>))>^>)>^]>'*----_!",
"!_-&--*'>>^///>///>^///>^///('')*''(///^>///^////>///^>>'*----_!",
"!_-$--*'>)(//;);//)(;/;)(;/;('')*''(;/;()//;(;//;);/;()>'*----_!",
"!_----*'>>^:<(><:<>^<:(>^<<(]>')*'>](:<^><:<^(<:<>(<<^>>'*--$-_!",
"!_----*'>]^))>]>))]^>)>]^>)>^'')*''^>)>^]))>^>))>]>)>^]>'*----_!",
"!_----*'>]]]]]]]]]]]]]]]]]]]]'')*'']]]]]]]]]]]]]]]]]]]]>'*----_!",
"!_-&--*'>^>//]^]//^>]/]^>]/]^'')*''^]/]>^//]>]//]^]/]>^>'*--%-_!",
"!_----*'>>^///>///>^///>^///('')*''(///^>///^////>///^>>'*----_!",
"!_----*'>)(<:/):<:)(:</)(::/(,')*',(/<:():<:(/:<:)/::()>'*--%-_!",
"!_----*'>^>/(]^]/(^>]/]^>](]>'')*'^>]/]>^(/]>](/]^](]>^>'*----_!",
"!_-%--*'>]^))>]>))]^>)>]^>)>^'')*''^>)>^]))>^>))>]>)>^]>'*----_!",
"!_-%--*',]^))>^>))^^>)>^^>)>^'')*''^>)>^^))>^>))>^>)>^],'*--%-_!",
"!_-$--*',^>//]^]//^>]/]^>]/]^'')*''^]/]>^//]>]//]^]/]>^,'*----_!",
"!_----*',)(//;);//)(;/;)(;/;('')*''(;/;()//;(;//;);/;(),'*----_!",
"!_-$--*''>^:<(><:<>^<:(>^<<(]>')*'>](:<^><:<^(<:<>(<<^>''*----_!",
"!_----*''^>/(]^]/(^>]/]^>](]>'')*''>]/]>^(/]>](/]^](]>^''*----_!",
"!_----*'']]]]]]]]]]]]]]]]]]]]'')*'']]]]]]]]]]]]]]]]]]]]''*--%-_!",
"!_-%--*'']^))>^>))^^>)>^^>)>^'')*''^>)>^^))>^>))>^>)>^]''*--$-_!",
"!_----*''>^///>///>^///>^///('')*''(///^>///^////>///^>''*----_!",
"!_-&--*'')(<:/):<:)(:</)(::/(,')*',(/<:():<:(/:<:)/::()''*----_!",
"__-$--*''>^:<(><:<>^<:(>^<<(]>')*'>](:<^><:<^(<:<>(<<^>''*--%-__",
"__----*'']^))>]>))]^>)>]^>)>^,')*',^>)>^]))>^>))>]>)>^]''*--$-__",
"__-@--*'']]]]]]]]]]]]]]]]]]]],')*',]]]]]]]]]]]]]]]]]]]]''*--%-__",
"__----*'''''''''''''''''''''''')*''''''''''''''''''''''''*----__",
"__---.*'''''''''''''''''''''''')*''''''''''''''''''''''''*.---__",
"__---%****************************************************%---__",
"******                                                    ******"};
