/* XPM */
static char * end_door2_xpm[] = {
"64 64 22 1",
" 	c None",
".	c #484848",
"+	c #687078",
"@	c #282830",
"#	c #303438",
"$	c #606068",
"%	c #505458",
"&	c #384040",
"*	c #202020",
"=	c #707878",
"-	c #788480",
";	c #181418",
">	c #181818",
",	c #889090",
"'	c #90A0A0",
")	c #101410",
"!	c #101010",
"~	c #100C10",
"{	c #080C08",
"]	c #080808",
"^	c #282828",
"/	c #303430",
".+++++++@+@#.#++++++++++++$%%..&&..%%$+++++++++++#.#@+++++++++.#",
"+++++++.*+++..++++++%&##.%$=--------=$%.##&%+++++..+++%.+++++++@",
".+++.@***.++#++++$%&#.$------------------$.#&%$+++#++.@**@#+++.@",
"+@*@%+++.*.+++$.&%=---%$-%$--%%&+-&%-%&%+----=%&.$++.**++++@**++",
"++#$+.@+++++.&%=--------------------------%+----=%&$++@+@.+$#$++",
"++.+++++.++%.$--%-$----=+$%#@******@#%$+=----$-%--$&%+++++++..++",
"+@+++#@.+&#$---%$---&@*;;;;;>>>>>>>>;;;;;*@&---$%---$#&+@#%++.++",
"##+++++++&$----$--+#*;;;>>>>>>>>>>>>>>>>;;;*#+--$----$&+++++++#+",
"+++++++&&,--&$--#**;>>>>>>>>>>>>>>>>>>>>>>>>;**#--$$--,&&++++++.",
"+++++%&$,-%---.*;;>>>>>>>>>>>>>>>>>>>>>>>>>>>>;;*.---%-,$&%+++++",
"#%+++&%,,-&%-.*;>>>>>>>>>>>>>>>>>>>>>>>>>>>>>>>>;*.-%&-,,%&+++#+",
"$@++.=',----@;;>>>>>>>>>>>>>>>>>>>>>>>>>>>>>>>>>>;;$----,'=.++$+",
"..+$&,'----=*;>>>>>>>>>>>>>>>>>>>>>>>>>>>>>>>>>>>>;@=----',&$+.+",
"++$&$'-%&-.*;>>>>>>>>>>>>>>>>>>>>>>>>>>>>>>>>>>>>>>;*.-&%-'$&$+#",
"++#%,----.*;>>>>>>>>>>>>>>>>>>>>>>>>>>>>>>>>>>>>>>>;;*.----,%#++",
"++&='-%$-@;;>>>>>>>>>>>>>>>>>>>>>>>>>>>>>>>>>>>>>>>>;;@-$%-'=&++",
"+$$,'$--=;;>>>>>>>>>>>>>>>>>>>>>>>>>>>>>>>>>>>>>>>>>>;;=--$',$$+",
"+%=',&%-.;;>>>>>>>>>>>>>>>>>>>>>>>>>>>>>>>>>>>>>>>>>>;;.-%%,'=%+",
"+&,'-%-$*);;;;;;;;;;;;;;;;;;;;;;;;;;;;;;;;;;;;;;;;;;;;)*$-%-',&+",
"%#',---#*;;;;;;;;;;;;;;;;;;;;;;;;;;;;;;;;;;;;;;;;;;;;;;*#--+,'#%",
".&'-%-=@;;;;;;;;;;;;;;;;;;;;;;;;;;;;;;;;;;;;;;;;;;;;;;;;@=-%-'&.",
"&%'---$*);;;;;;;;;;;;;;;;;;;;;;;;;;;;;;;;;;;;;;;;;;;;;;)*$---'%&",
"#$,-%-%*);;;;;;;;;;;;;;;;;;;;;;;;;;;;;;;;;;;;;;;;;;;;;;)*%-%-,$#",
"@=--$-#;);;;;;;;;;;;;;;;;;;;;;;;;;;;;;;;;;;;;;;;;;;;;;;);#-$--=@",
"*-----*!))))))))))))))))))))))))))))))))))))))))))))))))!*-----*",
"*,-%--*!))))))))))))))))))))))))))))))))))))))))))))))))!*--%-,*",
"*,-%--*!))))))))))))))))))))))))))))))))))))))))))))))))!*--%-,*",
"*,-+--*!))))))))))))))))))))))))))))))))))))))))))))))))!*--+-,*",
"*,----*!))))))))))))))))))))))))))))))))))))))))))))))))!*----,*",
"*,-$&-*!))))))))))))))))))))))))))))))))))))))))))))))))!*-&%-,*",
"*,-%--*!))))))))))))))))))))))))))))))))))))))))))))))))!*-.--,*",
"*,----*!!!!!!!!!!!!!!!!!!!!!!!!!!!!!!!!!!!!!!!!!!!!!!!!!!*--%-,*",
"*,-%--*!!!!!!!!!!!!!!!!!!!!!!!!!!!!!!!!!!!!!!!!!!!!!!!!!!*-$--,*",
"*,--%-*!!!!!!!!!!!!!!!!!!!!!!!!!!!!!!!!!!!!!!!!!!!!!!!!!!*--%-,*",
"*,----*!!!!!!!!!!!!!!!!!!!!!!!!!!!!!!!!!!!!!!!!!!!!!!!!!!*--%-,@",
"*,-$$-*!!!!!!!!!!!!!!!!!!!!!!!!!!!!!!!!!!!!!!!!!!!!!!!!!!*-%$-,@",
"*,----*!!!!!!!!!!!!!!!!!!!!!!!!!!!!!!!!!!!!!!!!!!!!!!!!!!*-.%-,@",
"*,--$-*!!!!!!!!!!!!!!!!!!!!!!!!!!!!!!!!!!!!!!!!!!!!!!!!!!*----,*",
"*,-%&-*~!!!!!!!!!!!!!!!!!!!!!!!!!!!!!!!!!!!!!!!!!!!!!!!!~*-%--,*",
"*,--$-*~!!!!!!!!!!!!!!!!!!!!!!!!!!!!!!!!!!!!!!!!!!!!!!!!~*----,*",
"*,----*~!!!!!!!!!!!!!!!!!!!!!!!!!!!!!!!!!!!!!!!!!!!!!!!!~*-$$-,*",
"*,-$--*~!!!!!!!!!!!!!!!!!!!!!!!!!!!!!!!!!!!!!!!!!!!!!!!!~*----,*",
"*,----*~!!!!!!!!!!!!!!!!!!!!!!!!!!!!!!!!!!!!!!!!!!!!!!!!~*-%--,*",
"@,-$&-*~!!!!!!!!!!!!!!!!!!!!!!!!!!!!!!!!!!!!!!!!!!!!!!!!~*--%-,@",
"@,-%--*~~~~~~~~~~~~~~~~~~~~~~~~~~~~~~~~~~~~~~~~~~~~~~~~~~*----,@",
"#,----*~~~~~~~~~~~~~~~~~~~~~~~~~~~~~~~~~~~~~~~~~~~~~~~~~~*--%-,#",
"&,----*~~~~~~~~~~~~~~~~~~~~~~~~~~~~~~~~~~~~~~~~~~~~~~~~~~*-%--,&",
"&,--%-*{~~~~~~~~~~~~~~~~~~~~~~~~~~~~~~~~~~~~~~~~~~~~~~~~{*----,&",
"&,--%-*{~~~~~~~~~~~~~~~~~~~~~~~~~~~~~~~~~~~~~~~~~~~~~~~~{*-%%-,&",
"&,-$$-*{~~~~~~~~~~~~~~~~~~~~~~~~~~~~~~~~~~~~~~~~~~~~~~~~{*----,&",
"&,----*{{{{{{{{{{{{{{{{{{{{{{{{{{{{{{{{{{{{{{{{{{{{{{{{{{*-&--,*",
"&,--$-*{{{{{{{{{{{{{{{{{{{{{{{{{{{{{{{{{{{{{{{{{{{{{{{{{{*-%--,*",
"&,----*{{{{{{{{{{{{{{{{{{{{{{{{{{{{{{{{{{{{{{{{{{{{{{{{{{*-$--,#",
"&,-&--*]{{{{{{{{{{{{{{{{{{{{{{{{{{{{{{{{{{{{{{{{{{{{{{{{]*--%-,&",
"&,-$%-*]{{{{{{{{{{{{{{{{{{{{{{{{{{{{{{{{{{{{{{{{{{{{{{{{]*-$$-,&",
"&,-%--*]{{{{{{{{{{{{{{{{{{{{{{{{{{{{{{{{{{{{{{{{{{{{{{{{]*----,&",
"&,-$&-*]]]]]]]]]]]]]]]]]]]]]]]]]]]]]]]]]]]]]]]]]]]]]]]]]]*----,&",
"&'--$-*]]]]]]]]]]]]]]]]]]]]]]]]]]]]]]]]]]]]]]]]]]]]]]]]]]*--%-'&",
"&'----*]]]]]]]]]]]]]]]]]]]]]]]]]]]]]]]]]]]]]]]]]]]]]]]]]]*-%$-'&",
"&'--.-*]]]]]]]]]]]]]]]]]]]]]]]]]]]]]]]]]]]]]]]]]]]]]]]]]]*--%-'&",
"#'-$--*]]]]]]]]]]]]]]]]]]]]]]]]]]]]]]]]]]]]]]]]]]]]]]]]]]*-%--'#",
"@'---+*]]]]]]]]]]]]]]]]]]]]]]]]]]]]]]]]]]]]]]]]]]]]]]]]]]*+---'@",
"@'---%*]]]]]]]]]]]]]]]]]]]]]]]]]]]]]]]]]]]]]]]]]]]]]]]]]]*%---'@",
" *****^]]]]]]]]]]]]]]]]]]]]]]]]]]]]]]]]]]]]]]]]]]]]]]]]]]^*****/"};
