/* XPM */
static char * teste_xpm[] = {
"64 64 9 1",
" 	c #FF00FF",
".	c #5ACEFD",
"+	c #3EB6EB",
"@	c #33ACE5",
"#	c #7A83CF",
"$	c #A7E3FF",
"%	c #C8ECFD",
"&	c #F8F8F9",
"*	c #198DC0",
"                                                                ",
"                                                                ",
"                                                                ",
"                                                                ",
"                                                                ",
"                                                                ",
"                                                                ",
"                                                                ",
"                                                                ",
"                                                                ",
"                                                                ",
"                                                                ",
"                                                                ",
"                                                                ",
"                                                                ",
"                                                                ",
"                                                                ",
"                                                                ",
"                                                                ",
"                                                                ",
"                                                                ",
"                                                                ",
"                                                                ",
"                                                                ",
"                                                                ",
"                                                                ",
"                                                                ",
"                              .....                             ",
"                            .......+@.                          ",
"                          .............                         ",
"                         #.....$%&%.....                        ",
"                         .....$&&&%......                       ",
"                         ......%&&%......                       ",
"                         .....$$&&&......                       ",
"                         ....$$%&&&&$....                       ",
"                         ....$$&&&&......                       ",
"                         .....$$&&%......                       ",
"                         .....$$%$......                        ",
"                          ......$.......                        ",
"                          ......$.......                        ",
"                            **+........                         ",
"                            **@@.....*                          ",
"                            ***@....**                          ",
"                             ***...**                           ",
"                             ***..***                           ",
"                            ***@***                             ",
"                            *****                               ",
"                            *****                               ",
"                            ****                                ",
"                           *****                                ",
"                          ******                                ",
"                            *******                             ",
"                            *******                             ",
"                             ******                             ",
"                                ***                             ",
"                                ***                             ",
"                                ***                             ",
"                               ****                             ",
"                              ***                               ",
"                              ***                               ",
"                              **                                ",
"                              *                                 ",
"                                                                ",
"                                                                "};
