/* XPM */
static char * coins_xpm[] = {
"64 64 3 1",
" 	c None",
".	c #FF00FF",
"+	c #000000",
"................................................................",
"................................................................",
"................................................................",
"................................................................",
"................................................................",
"................................................................",
"................................................................",
"................................................................",
"................................................................",
"................................................................",
"................................................................",
"................................................................",
"................................................................",
"................................................................",
"................................................................",
"................................................................",
"................................................................",
"................................................................",
"................................................................",
"................................................................",
"................................................................",
"................................................................",
"................................................................",
"................................................................",
"................................................................",
".......+++.............+++.............+++.............+++......",
".....+++++++.........+++++++.........+++++++.........+++++++....",
"....+++   +++.......+++   +++.......+++   +++.......+++   +++...",
"...++       ++.....++       ++.....++       ++.....++       ++..",
"...++       ++.....++       ++.....++       ++.....++       ++..",
"..++         ++...++         ++...++         ++...++         ++.",
"..++         ++...++         ++...++         ++...++         ++.",
"..++         ++...++         ++...++         ++...++         ++.",
"...++       ++.....++       ++.....++       ++.....++       ++..",
"...++       ++.....++       ++.....++       ++.....++       ++..",
"....+++   +++.......+++   +++.......+++   +++.......+++   +++...",
".....+++++++.........+++++++.........+++++++.........+++++++....",
".......+++.............+++.............+++.............+++......",
"................................................................",
"................................................................",
"................................................................",
"................................................................",
"................................................................",
"................................................................",
"................................................................",
"................................................................",
"................................................................",
"................................................................",
"................................................................",
"................................................................",
"................................................................",
"................................................................",
"................................................................",
"................................................................",
"................................................................",
"................................................................",
"................................................................",
"................................................................",
"................................................................",
"................................................................",
"................................................................",
"................................................................",
"................................................................",
"................................................................"};
