/* XPM */
static char * coins5_xpm[] = {
"64 64 8 1",
" 	c #FF00FF",
".	c #090100",
"+	c #1F1F1F",
"@	c #C1902C",
"#	c #7A5E1C",
"$	c #FFFFFF",
"%	c #F6D63F",
"&	c #FFF799",
"                                                                ",
"                                                                ",
"                                                                ",
"                                                                ",
"                                                                ",
"                                                                ",
"                                                                ",
"                                                                ",
"                                                                ",
"                                                                ",
"                                                                ",
"                                                                ",
"                                                                ",
"                                                                ",
"                                                                ",
"                                                                ",
"                                                                ",
"                                                                ",
"                                                                ",
"                                                                ",
"                                                                ",
"                                                                ",
"                                                                ",
"                                                                ",
"                                                                ",
"       ...             ...             ...             ...      ",
"     ..+++..         ..+++..         ..+++..         ..+++..    ",
"    .++@@@++.       .++@@@++.       .++@@@++.       .++@@@++.   ",
"   .+#$%%%%#+.     .+#$%%%%#+.     .+#$%%%%#+.     .+#$%%%%#+.  ",
"   .+$%@@@%%+.     .+$%@@@%%+.     .+$%@@@%%+.     .+$%@@@%%+.  ",
"  .+@%@%%%%%@+.   .+@%@%%%%%@+.   .+@%@%%%%%@+.   .+@%@%%%%%@+. ",
"  .+@%@%%%&%@+.   .+@%@%%%&%@+.   .+@%@%%%&%@+.   .+@%@%%%&%@+. ",
"  .+@%@%%%$%@+.   .+@%@%%%$%@+.   .+@%@%%%$%@+.   .+@%@%%%$%@+. ",
"   .+%%%&$%%+.     .+%%%&$%%+.     .+%%%&$%%+.     .+%%%&$%%+.  ",
"   .+#%%%%%#+.     .+#%%%%%#+.     .+#%%%%%#+.     .+#%%%%%#+.  ",
"    .++@@@++.       .++@@@++.       .++@@@++.       .++@@@++.   ",
"     ..+++..         ..+++..         ..+++..         ..+++..    ",
"       ...             ...             ...             ...      ",
"                                                                ",
"                                                                ",
"                                                                ",
"                                                                ",
"                                                                ",
"                                                                ",
"                                                                ",
"                                                                ",
"                                                                ",
"                                                                ",
"                                                                ",
"                                                                ",
"                                                                ",
"                                                                ",
"                                                                ",
"                                                                ",
"                                                                ",
"                                                                ",
"                                                                ",
"                                                                ",
"                                                                ",
"                                                                ",
"                                                                ",
"                                                                ",
"                                                                ",
"                                                                "};
