/* XPM */
static char * collec_xpm[] = {
"64 64 5 1",
" 	c #FF00FF",
".	c #C49900",
"+	c #9A7900",
"@	c #EEB900",
"#	c #FEE921",
"                                                                ",
"                                                                ",
"                                                                ",
"                                                                ",
"                                                                ",
"                                                                ",
"                                                                ",
"                                                                ",
"                                                                ",
"                                                                ",
"                                                                ",
"                                                                ",
"                                                                ",
"                                                                ",
"                                                                ",
"                                                                ",
"                                                                ",
"                                                                ",
"                                                                ",
"                                                                ",
"                                                                ",
"                                                                ",
"                                                                ",
"                                                                ",
"                                                                ",
"                                                                ",
"                              ...+..+                           ",
"                           ...@#@##@.+++                        ",
"                         ..@###.@@..@@@.++                      ",
"                        .@##@@.##@@@...@@.+                     ",
"                       .@#@@#@#@+++.@@@..@.+                    ",
"                      .@#@##...+++++++.@@.@.+                   ",
"                     .@#@#@+..++++++++++.@.@.+                  ",
"                    .@#@#@+..++++++++++++.@.@.+                 ",
"                    .#@#@+..++++++++++++++.@.@+                 ",
"                   .@#@#+..++++.@@@.+++++++@.@.+                ",
"                   .#@#...+++.@@@@@@@.+++++.@.@+                ",
"                   .#@@..+++.@@@@@@@@@.+++++@.@+                ",
"                  .@#.#.+++.@@..+++..@@.++++@.@.+               ",
"                  .#.#@+@@@@@@++.@.++@@@@@@+.@.@+               ",
"                  .@@#++@@@@.++.@@@.++.@@@@++@.@+               ",
"                  +#@@+++++++++@@+@@+++++++++@.@+               ",
"                  .#.@++@@@@.++.@@@.++.@@@@++@.@+               ",
"                  .@.@.+@@@@@@++.@.++@@@@@@+.@.@+               ",
"                  +.@.@++++.@@..+++..@@.++++@.@.+               ",
"                   +@+@+++++.@@@@@@@@@.+++++@.@+                ",
"                   +@.@.+++++.@@@@@@@.+++++.@.@+                ",
"                   +.@.@+++++++.@@@.+++++++@.@.+                ",
"                    +@.@.+++++++++++++++++.@.@+                 ",
"                    +.@.@.+++++++++++++++.@.@.+                 ",
"                     +.@.@.+++++++++++++.@.@.+                  ",
"                      +.@.@@.+++++++++.@@.@.+                   ",
"                       +.@..@@@.+++.@@@..@.+                    ",
"                        +.@@...@@@@@...@@.+                     ",
"                         ++.@@@.....@@@.++                      ",
"                           +++.@@@@@.+++                        ",
"                              +++++++                           ",
"                                                                ",
"                                                                ",
"                                                                ",
"                                                                ",
"                                                                ",
"                                                                ",
"                                                                "};
