/* XPM */
static char * enemy_xpm[] = {
"64 64 50 1",
" 	c #980088",
".	c #700000",
"+	c #E00000",
"@	c #FC0000",
"#	c #FC5C5C",
"$	c #A80000",
"%	c #383838",
"&	c #000000",
"*	c #545454",
"=	c #A8A8A8",
"-	c #FCFCFC",
";	c #202020",
">	c #0000A8",
",	c #707070",
"'	c #C0C0C0",
")	c #7C7C7C",
"!	c #5C4020",
"~	c #484848",
"{	c #905C34",
"]	c #848400",
"^	c #9C6038",
"/	c #0000B0",
"(	c #885830",
"_	c #BC7848",
":	c #FCB890",
"<	c #F0945C",
"[	c #A86840",
"}	c #FC9C60",
"|	c #E88C58",
"1	c #80502C",
"2	c #C87C4C",
"3	c #DCDCDC",
"4	c #543C1C",
"5	c #646464",
"6	c #D0D0D0",
"7	c #B4B4B4",
"8	c #989898",
"9	c #8C8C8C",
"0	c #63747D",
"a	c #ECECEC",
"b	c #FCFC54",
"c	c #FCA85C",
"d	c #FC7800",
"e	c #A85400",
"f	c #6C4824",
"g	c #A0643C",
"h	c #2C2C2C",
"i	c #00002C",
"j	c #000034",
"k	c #00001C",
"                                                                ",
"                                                                ",
"                                                                ",
"                                                                ",
"                                                                ",
"                                                                ",
"                                                                ",
"                                                                ",
"                                                                ",
"                                                                ",
"                                                                ",
"                                                                ",
"                                                                ",
"                                                                ",
"                                                                ",
"                          .+@#@+++$$$.                          ",
"                          %&**=--=*%;%                          ",
"                          %>>&&&&&&&&%                          ",
"                           %,'=)**%%%                           ",
"                           !****~~%%!                           ",
"                           {]^/((/^]{                           ",
"                            _::<[::_                            ",
"                            (}<||<}(                            ",
"                           &12=33=21&                           ",
"                           ;12||||21&                           ",
"                         )~;%{{{{{!4)&5                         ",
"                        6-);%7;&&&&=&8885                       ",
"                      66--7;;;&~~&&&933667                      ",
"                     66-33-);&99'999'''6667                     ",
"                    6---37''5;~'9'3333'98667                    ",
"                   6---6=8'');;~)'))))758767                    ",
"                   --66=)*8'');;~)=''87587667                   ",
"                  6-36=)0,,,,7);;;,''8858aa67                   ",
"                  -3---00*%99,9,;;;88)* 6,867                   ",
"                  =3----00%*,*,,*;;;,*% *8667                   ",
"                   =--6600&&;;;bcc;;;&&  8667                   ",
"                    =6}}}}aaa;;def;;;&&  8678                   ",
"                     =}};;~7aa))~))))5~  8667                   ",
"                      g_;;;~)aa=87==9),5 }}}[                   ",
"                       g;;;;~~=a89==8),5 }[}[                   ",
"                         ;;;~~~~~)==8),5   }[                   ",
"                         )~~h))~~,===),5   [[                   ",
"                         )777895~*,,,,*~    [                   ",
"                         ='a779,**)===8                         ",
"                        8=aa'=),*,73''8                         ",
"                        8'aa'=)5*9736'8)                        ",
"                        8aa67=)5*973337)                        ",
"                        7aa67=)**9733379                        ",
"                        6aaa69)* 97333'8                        ",
"                       66a336))* 9'333'8                        ",
"                       67777a85% 9'33378                        ",
"                       777778*~* 9'9-a=7                        ",
"                       )777=)5*    7==99~                       ",
"                       ))88)*%;   ~9999,%                       ",
"                       i%~~~%&      5*~%h                       ",
"                       iijikk&    jji&k&                        ",
"                       iijikk&    jjikk&                        ",
"                        jjikk&    jjikk&                        ",
"                        i&&&&     &&iik&                        ",
"                        iiikki     &&&&&                        ",
"                        ijjik&     jjk&                         ",
"                       ijiiik&    jjjjk&                        ",
"                       ijiii;&    jjjjik&                       ",
"                        iiiii     &iikkk&                       "};
