/* XPM */
static char * hp_collect1_xpm[] = {
"64 64 21 1",
" 	c #FF00FF",
".	c #080000",
"+	c #0A0001",
"@	c #1F1F1F",
"#	c #070101",
"$	c #090100",
"%	c #E40000",
"&	c #1D1D1D",
"*	c #110010",
"=	c #0C000C",
"-	c #121212",
";	c #070001",
">	c #050001",
",	c #1E1E1E",
"'	c #FFFFFF",
")	c #F69679",
"!	c #790000",
"~	c #090003",
"{	c #070000",
"]	c #090000",
"^	c #090001",
"                                                                ",
"                                                                ",
"                                                                ",
"                                                                ",
"                                                                ",
"                                                                ",
"                                                                ",
"                                                                ",
"                                                                ",
"                                                                ",
"                                                                ",
"                                                                ",
"                                                                ",
"                                                                ",
"                                                                ",
"                                                                ",
"                                                                ",
"                                                                ",
"                                                                ",
"                                                                ",
"                                                                ",
"                                                                ",
"                                                                ",
"                                                                ",
"                                                                ",
"                                                                ",
"                                                                ",
"                                                                ",
"                                                                ",
"                                                                ",
"                                                                ",
"                                                                ",
"                                                                ",
"                                                                ",
"                                                                ",
"                                                                ",
"                                                                ",
"                                                                ",
"                        ....      ....                          ",
"                        ....      ....                          ",
"                      ++@@@@##  ##@@@@$$                        ",
"                      ++@@@@##  ##@@@@$$                        ",
"                    ..@@%%%%@&*=-&%%%%@@++                      ",
"                    ..@@%%%%@@;>,@%%%%@@++                      ",
"                  ..@@%%''))%%@@%%))%%%%@@..                    ",
"                  ..@@%%''))%%@@%%))%%%%@@..                    ",
"                  ..@@%%))%%%%%%%%%%%%%%@@..                    ",
"                  ..@@%%))%%%%%%%%%%%%%%@@..                    ",
"                  ..@@!!%%%%%%%%%%%%%%!!@@##                    ",
"                  ..@@!!%%%%%%%%%%%%%%!!@@##                    ",
"                    ..@@!!%%%%%%%%%%!!@@~~                      ",
"                    ..@@!!%%%%%%%%%%!!@@~~                      ",
"                      $$@@!!%%%%%%!!@@{{                        ",
"                      $$@@!!%%%%%%!!@@{{                        ",
"                        ]]@@!!%%!!@@..                          ",
"                        ]]@@!!%%!!@@..                          ",
"                          ..@@!!@@..                            ",
"                          ..@@!!@@..                            ",
"                            ##@@##                              ",
"                            ##@@##                              ",
"                              ^^                                ",
"                              ^^                                ",
"                                                                ",
"                                                                "};
