/* XPM */
static char * wall4_xpm[] = {
"64 64 521 2",
"  	c #000000",
". 	c #885656",
"+ 	c #6C4545",
"@ 	c #5C3A3A",
"# 	c #573737",
"$ 	c #563636",
"% 	c #513434",
"& 	c #523434",
"* 	c #4F3232",
"= 	c #543535",
"- 	c #503333",
"; 	c #4D3131",
"> 	c #382323",
", 	c #010101",
"' 	c #6F4646",
") 	c #5B3A3A",
"! 	c #4B2F2F",
"~ 	c #472D2D",
"{ 	c #492E2E",
"] 	c #402828",
"^ 	c #0E0707",
"/ 	c #674040",
"( 	c #5E3C3C",
"_ 	c #4A2F2F",
": 	c #4A2E2E",
"< 	c #482D2D",
"[ 	c #462C2C",
"} 	c #3A2424",
"| 	c #563434",
"1 	c #6A4444",
"2 	c #633F3F",
"3 	c #543636",
"4 	c #553636",
"5 	c #533535",
"6 	c #563737",
"7 	c #4E3131",
"8 	c #4C3030",
"9 	c #4E3232",
"0 	c #2A1919",
"a 	c #764B4B",
"b 	c #654141",
"c 	c #573838",
"d 	c #1E1111",
"e 	c #B27272",
"f 	c #784D4D",
"g 	c #613E3E",
"h 	c #5C3B3B",
"i 	c #5F3D3D",
"j 	c #5F3C3C",
"k 	c #603D3D",
"l 	c #603E3E",
"m 	c #020202",
"n 	c #A36868",
"o 	c #704747",
"p 	c #623F3F",
"q 	c #5D3B3B",
"r 	c #140B0B",
"s 	c #905B5B",
"t 	c #744A4A",
"u 	c #5D3C3C",
"v 	c #513333",
"w 	c #653F3F",
"x 	c #8E5B5B",
"y 	c #593939",
"z 	c #382222",
"A 	c #784C4C",
"B 	c #623E3E",
"C 	c #644040",
"D 	c #2B1919",
"E 	c #B47373",
"F 	c #7B4E4E",
"G 	c #030303",
"H 	c #A96C6C",
"I 	c #754A4A",
"J 	c #583838",
"K 	c #593838",
"L 	c #643E3E",
"M 	c #895757",
"N 	c #352121",
"O 	c #865555",
"P 	c #704848",
"Q 	c #2D1B1B",
"R 	c #C47D7D",
"S 	c #7E5050",
"T 	c #442B2B",
"U 	c #040404",
"V 	c #AC6E6E",
"W 	c #805252",
"X 	c #150C0C",
"Y 	c #925D5D",
"Z 	c #7B4F4F",
"` 	c #5D3A3A",
" .	c #8F5C5C",
"..	c #6B4545",
"+.	c #5A3939",
"@.	c #392323",
"#.	c #8E5A5A",
"$.	c #331F1F",
"%.	c #B57373",
"&.	c #6E4646",
"*.	c #120B0B",
"=.	c #5F3B3B",
"-.	c #8C5959",
";.	c #3B2525",
">.	c #935D5D",
",.	c #6A4343",
"'.	c #2E1B1B",
").	c #B37272",
"!.	c #7E5151",
"~.	c #050505",
"{.	c #B87676",
"].	c #734949",
"^.	c #160E0E",
"/.	c #9A6262",
"(.	c #774C4C",
"_.	c #664141",
":.	c #633E3E",
"<.	c #945F5F",
"[.	c #BB7777",
"}.	c #845454",
"|.	c #654040",
"1.	c #060606",
"2.	c #724949",
"3.	c #AA6C6C",
"4.	c #643F3F",
"5.	c #603C3C",
"6.	c #A66A6A",
"7.	c #3C2525",
"8.	c #9C6464",
"9.	c #714848",
"0.	c #C77F7F",
"a.	c #875656",
"b.	c #694343",
"c.	c #070707",
"d.	c #CB8282",
"e.	c #794D4D",
"f.	c #1F1414",
"g.	c #AE6F6F",
"h.	c #623D3D",
"i.	c #674242",
"j.	c #3F2828",
"k.	c #352020",
"l.	c #D18686",
"m.	c #C27C7C",
"n.	c #A16767",
"o.	c #935E5E",
"p.	c #945E5E",
"q.	c #915C5C",
"r.	c #6D4646",
"s.	c #6F4747",
"t.	c #895858",
"u.	c #080808",
"v.	c #C17B7B",
"w.	c #B07070",
"x.	c #7C4F4F",
"y.	c #724848",
"z.	c #6B4444",
"A.	c #231616",
"B.	c #9F6565",
"C.	c #966060",
"D.	c #8B5959",
"E.	c #8A5858",
"F.	c #553535",
"G.	c #C57E7E",
"H.	c #AD6F6F",
"I.	c #9D6464",
"J.	c #965F5F",
"K.	c #8F5B5B",
"L.	c #6D4545",
"M.	c #7D4F4F",
"N.	c #A06666",
"O.	c #342020",
"P.	c #6A4141",
"Q.	c #8D5959",
"R.	c #865454",
"S.	c #875555",
"T.	c #8C5858",
"U.	c #815151",
"V.	c #855454",
"W.	c #734848",
"X.	c #794C4C",
"Y.	c #996161",
"Z.	c #976060",
"`.	c #7A4D4D",
" +	c #774B4B",
".+	c #7D4E4E",
"++	c #191010",
"@+	c #955E5E",
"#+	c #986060",
"$+	c #925C5C",
"%+	c #090909",
"&+	c #825252",
"*+	c #845353",
"=+	c #815252",
"-+	c #8A5757",
";+	c #4A2D2D",
">+	c #5C3939",
",+	c #8B5757",
"'+	c #8A5656",
")+	c #1D0F0F",
"!+	c #4F3030",
"~+	c #3B2424",
"{+	c #362121",
"]+	c #372222",
"^+	c #311F1F",
"/+	c #362222",
"(+	c #301E1E",
"_+	c #241717",
":+	c #2A1B1B",
"<+	c #1E1313",
"[+	c #392424",
"}+	c #372323",
"|+	c #342121",
"1+	c #271919",
"2+	c #281919",
"3+	c #2C1B1B",
"4+	c #261818",
"5+	c #281A1A",
"6+	c #181010",
"7+	c #543434",
"8+	c #2E1D1D",
"9+	c #2A1A1A",
"0+	c #201414",
"a+	c #251818",
"b+	c #140E0E",
"c+	c #5A3838",
"d+	c #3F2727",
"e+	c #130D0D",
"f+	c #3D2626",
"g+	c #291919",
"h+	c #241616",
"i+	c #2B1A1A",
"j+	c #211414",
"k+	c #140A0A",
"l+	c #A26767",
"m+	c #160F0F",
"n+	c #955F5F",
"o+	c #7F5151",
"p+	c #231717",
"q+	c #8B5858",
"r+	c #2B1C1C",
"s+	c #181111",
"t+	c #5A3A3A",
"u+	c #7D5050",
"v+	c #241818",
"w+	c #322020",
"x+	c #412828",
"y+	c #AD6E6E",
"z+	c #754B4B",
"A+	c #3C2626",
"B+	c #684343",
"C+	c #A46969",
"D+	c #3E2626",
"E+	c #171010",
"F+	c #634040",
"G+	c #3E2828",
"H+	c #352222",
"I+	c #A26868",
"J+	c #B87575",
"K+	c #533434",
"L+	c #A56969",
"M+	c #412929",
"N+	c #362323",
"O+	c #442A2A",
"P+	c #AB6D6D",
"Q+	c #412A2A",
"R+	c #462D2D",
"S+	c #301F1F",
"T+	c #472C2C",
"U+	c #684242",
"V+	c #432B2B",
"W+	c #674141",
"X+	c #322121",
"Y+	c #BC7878",
"Z+	c #C37D7D",
"`+	c #462B2B",
" @	c #BD7878",
".@	c #B17171",
"+@	c #A76A6A",
"@@	c #AF7070",
"#@	c #8D5A5A",
"$@	c #0F0D0D",
"%@	c #B67474",
"&@	c #B57474",
"*@	c #AF6F6F",
"=@	c #A86B6B",
"-@	c #9B6363",
";@	c #9F6666",
">@	c #905C5C",
",@	c #613D3D",
"'@	c #996262",
")@	c #915D5D",
"!@	c #B97676",
"~@	c #C88080",
"{@	c #A76B6B",
"]@	c #4C2F2F",
"^@	c #C98080",
"/@	c #A16666",
"(@	c #9C6363",
"_@	c #986161",
":@	c #9E6464",
"<@	c #6A4242",
"[@	c #0A0A0A",
"}@	c #0B0B0B",
"|@	c #0C0C0C",
"1@	c #0D0D0D",
"2@	c #0E0E0E",
"3@	c #0F0F0F",
"4@	c #101010",
"5@	c #111111",
"6@	c #7E4F4F",
"7@	c #4B3030",
"8@	c #1D1313",
"9@	c #482E2E",
"0@	c #3D2727",
"a@	c #4C3131",
"b@	c #402929",
"c@	c #452C2C",
"d@	c #452B2B",
"e@	c #432A2A",
"f@	c #3E2727",
"g@	c #160C0C",
"h@	c #A36767",
"i@	c #271717",
"j@	c #2C1A1A",
"k@	c #885757",
"l@	c #7A4E4E",
"m@	c #301D1D",
"n@	c #341F1F",
"o@	c #9E6565",
"p@	c #825353",
"q@	c #B37171",
"r@	c #B77575",
"s@	c #865656",
"t@	c #734A4A",
"u@	c #A56A6A",
"v@	c #845252",
"w@	c #AB6C6C",
"x@	c #A66969",
"y@	c #895656",
"z@	c #835353",
"A@	c #4A3030",
"B@	c #4B3131",
"C@	c #281C1C",
"D@	c #B07171",
"E@	c #9B6262",
"F@	c #422828",
"G@	c #150A0A",
"H@	c #1A0E0E",
"I@	c #190E0E",
"J@	c #221414",
"K@	c #180E0E",
"L@	c #190F0F",
"M@	c #140D0D",
"N@	c #251717",
"O@	c #191111",
"P@	c #201616",
"Q@	c #1B1414",
"R@	c #1D1616",
"S@	c #1F1717",
"T@	c #251B1B",
"U@	c #221919",
"V@	c #211919",
"W@	c #221A1A",
"X@	c #1C1717",
"Y@	c #191717",
"Z@	c #412B2B",
"`@	c #271E1E",
" #	c #221B1B",
".#	c #211B1B",
"+#	c #1F1B1B",
"@#	c #281E1E",
"##	c #261D1D",
"$#	c #231B1B",
"%#	c #201818",
"&#	c #231A1A",
"*#	c #231919",
"=#	c #1E1717",
"-#	c #1C1515",
";#	c #1D1515",
">#	c #211717",
",#	c #251919",
"'#	c #1E1515",
")#	c #1C1313",
"!#	c #140F0F",
"~#	c #221616",
"{#	c #1A1111",
"]#	c #130C0C",
"^#	c #201313",
"/#	c #150B0B",
"(#	c #5E3B3B",
"_#	c #2B1E1E",
":#	c #332222",
"<#	c #1C1010",
"[#	c #322222",
"}#	c #382525",
"|#	c #784B4B",
"1#	c #342323",
"2#	c #3C2727",
"3#	c #201212",
"4#	c #B27171",
"5#	c #402A2A",
"6#	c #1F1212",
"7#	c #BD7979",
"8#	c #583737",
"9#	c #372424",
"0#	c #764C4C",
"a#	c #3D2828",
"b#	c #BE7979",
"c#	c #392525",
"d#	c #422B2B",
"e#	c #301C1C",
"f#	c #CD8383",
"g#	c #573636",
"h#	c #CA8181",
"i#	c #BF7A7A",
"j#	c #B97777",
"k#	c #976161",
"l#	c #C17C7C",
"m#	c #B37373",
"n#	c #C98181",
"o#	c #AA6D6D",
"p#	c #9A6363",
"q#	c #311D1D",
"r#	c #0A0404",
"s#	c #140909",
"t#	c #130909",
"u#	c #130B0B",
"v#	c #140C0C",
"w#	c #170F0F",
"x#	c #161313",
"y#	c #1B1515",
"z#	c #1A1414",
"A#	c #1A1313",
"B#	c #171111",
"C#	c #1B1212",
"D#	c #150F0F",
"E#	c #0D0B0B",
"F#	c #613C3C",
"G#	c #593737",
"H#	c #5B3838",
"I#	c #603B3B",
"J#	c #5E3A3A",
"K#	c #6C4343",
"L#	c #2A1717",
"M#	c #291818",
"N#	c #231515",
"O#	c #211515",
"P#	c #1F1515",
"Q#	c #100E0E",
"R#	c #2A1C1C",
"S#	c #2B1D1D",
"T#	c #181414",
"U#	c #271B1B",
"V#	c #1E1616",
"W#	c #191313",
"X#	c #191212",
"Y#	c #181212",
"Z#	c #180F0F",
"`#	c #150D0D",
" $	c #170D0D",
".$	c #1A0F0F",
"+$	c #120A0A",
"@$	c #7F4F4F",
"#$	c #221717",
"$$	c #704646",
"%$	c #211616",
"&$	c #020101",
"*$	c #8C5A5A",
"=$	c #8F5A5A",
"-$	c #6C4444",
";$	c #A06565",
">$	c #6D4444",
",$	c #714747",
"'$	c #9F6464",
")$	c #2F1E1E",
"!$	c #694242",
"~$	c #A16565",
"{$	c #2D1C1C",
"]$	c #D78A8A",
"^$	c #BA7777",
"/$	c #B67575",
"($	c #BB7878",
"_$	c #CA8282",
":$	c #6E4545",
"<$	c #A86C6C",
"[$	c #100C0C",
"}$	c #170E0E",
"|$	c #160D0D",
"1$	c #100707",
"2$	c #523232",
"3$	c #321F1F",
"4$	c #311E1E",
"5$	c #332020",
"6$	c #2B1B1B",
"7$	c #422929",
"8$	c #291A1A",
"9$	c #221515",
"0$	c #2F1D1D",
"a$	c #120909",
"b$	c #684141",
"c$	c #764A4A",
"d$	c #6B4343",
"e$	c #7B4D4D",
"f$	c #AE6E6E",
"g$	c #7F5050",
"h$	c #492D2D",
"i$	c #4D3030",
"j$	c #694141",
"k$	c #835454",
"l$	c #996060",
"m$	c #523333",
"n$	c #C67E7E",
"o$	c #503232",
"p$	c #C37C7C",
"q$	c #A46868",
"r$	c #744949",
"s$	c #CF8484",
"t$	c #543333",
"u$	c #855555",
"v$	c #6B4242",
"                                                                                                                                ",
". + @ # $ % & * = & - ; - > , ' ) ! ~ ~ ~ { { ] ^ / ( * ; ; _ * : { < [ ~ } | 1 2 3 4 4 5 6 3 - - - % 4 - ; 7 8 9 0 a b c ) 4 d ",
"e f g g h h ( i ) j k ( l < m n o ) i p i q k = r s t g u h i i g 2 ( h q v w x 1 ( u u k k k q ( h g j ( ( ) p y z A + B g C D ",
"E F 2 k g ( h k i ) ( k B 8 G H I ( l j g k C J r s a k j 2 ( h ( q C q h K L M + i g k ( j g ( 2 ( g g k h p 2 2 N O P p p p Q ",
"R S 2 g ( ( ( u j B h ) g T U V W ( ) ( h q j 4 X Y Z 2 k g k h k i q u q - `  ...j ) k q q i ) q ( h 2 k h +.( q @.#.+ i i B $.",
"%.f 2 i C k g B ( i j q g 8 U V &.i i q i ( k @ *.Y t 2 ( g 2 h B k i k i $ =.-.1 B C h q 2 2 C g k ( i p p k q y ;.>.,.k g g '.",
").!.p ( i l k B g ( ( g B - ~.{.].2 g ( j i B i ^./.(._.q g p B i q u l i 6 :.<.1 j g g k ( g k i ( u @ j 2 k g J ] /.P g C _.$.",
"[.}.C ( h q g q |.2 g i p * 1.E 2.q q ( j ( p g ^.3.Z j i q ( 4.( p C k k # 5.6.2.( ( @ k g h ( u g g k y j q 2 h 7.8.9.B ( |.@.",
"0.a.b.C p k l j B ( i 4.2 - c.d.e._.p k g k k ( f.g.W C i g ( g l g C g C h h.V F p B b 2 g B g 2 i.C k C g C g h j.6.I 2 p i.k.",
"l.m.n.o.p.q.!.+ r.&.s.b.t.@ u.v.w.x.y.z.b.i.r.f A.B.E C.D.E.x P r.9.&.+ ]._.F.G.H.I.J.o.x p.Y K.a.<.x.z.&.s.L.P M.] H N.a 2.!.O.",
"P.Q.R.S.R.T.S.U.R.S.V.. M W.u.X.Y.Z.Y -.`. +I .+++/ >.Y p.@+@+-.#+$+$+M I `.%+W.s &+Q.*+O &+=+-+-+*+s U.R.O V.M T.;+>+Q.,+R.'+)+",
"!+~+7.{+N ]+]+^+/+(+_+:+<+%+# 7./+> [+N }+|+/+}+N > 1+2+1+3+4+5+6+7+}+}+[+8+9+:+0+a+b+c+d+/+N a+2+4+e+f+;.}+N (+g+h+i+j+h+g+Q k+",
"l+!.g q ( k k ( +.( ( g * m+n+(.) ( j k g ( j k ( g q ( j ( 4.J }+o+x.i k C ( C h y p+q+r.( j g i j r+o.r.q g k ( ( q @ h 2 2 /+",
"6.Z B ( j h q ( q ( k 2 { s+p.+ k k ) q u g i p ( ) i ( g k ( t+|+u+z.g ( k ( i g ( v+-.z.k j g i y w+I...q k ) ( B ( j k 2 _.x+",
"y+z+B i ( g B i ( i ) 2 5 s+n+,.g k 2 ( ( g C k C ( i k 2 i i ) A+q.B+( ( 4.i u b ) _+B.1 q k k g ) N C+s.g u q h k 2 g ( g C D+",
"y+I k k g k 2 i l j g C K E+Z.r.g g ( k k B k F+B B i g p p 2 i G+I.+ g i B g g g k r+n b.k ( q 2 g H+I+,.B q 2 l g i g i ( g x+",
"J+F i u j p h k l g k l K+s+L+P @ g j ( ( ( i ) q ( p g g l 2 ) M+C+r.b k h k k p ( w+n.&.i ( g k 6 N+I.s.k g q q i i i h ( 2 O+",
"y+e.g k h ) k q q j h q 4 E+P+P q ) q g i g ( i ) ( g g 2 k k k Q+I.&.g j k g k B ) |+8.z.g g k 4.6 ;.P+&.B k h i p i ( ( @ 2 T ",
"g.f 2 B ( g B 2 ( u k q - s+P+2.g k k l j p k g B q i g j ( C 2 R+n.9.B g q p k B ) S+C+&.2 i k j ) j.w.s.C k k ( |.i.2 i i g T+",
"[.S o z.B+i.i.b z.U+U+1 +.s+{.D.B+i.B+b.i.+ B+_.1 |._.C 2 _.i.+ V+E -.z.W+C g W+r.g X+Y+9.b...U+i.2 j.Z+}.&.i.|.|.g 2 b.l b U+`+",
" @R [..@w.g.3.H +@@@B.#@s $@%@Z+&@*@E V V =@3.I.-@;@N.I+<.>@o./.,@'@R E /.I+)@p.Z.o.G+!@~@@@{@p.K.<.]@.@^@%@H.I./@(@_@Z.E.V.:@<@",
"  , m G U U ~.1.c.u.u.%+[@}@|@1@1@2@3@4@5@5@5@5@5@5@5@5@5@5@5@5@5@5@5@5@5@5@5@5@5@5@5@5@4@3@2@1@1@|@}@[@%+u.u.c.1.~.U U G m ,   ",
"6@2 v 7@_ { 7@; T 8@' j v - K+7@& 8 9 * 9@9@0@k L.3 6 - ; & 5 ; a@; b@7@g % 9 - 7@a@j.8 +.a@~ _ { _ ~ [ M+[ ~ c@d@e@O+e@f@f@g@  ",
"h@}.i g j q 3 k ( (+J.L.( q k 2 j B ) j h ( * (.o z.( ( i h ( J ( i @ O U+_.u g h g 6 k s.b.k ( g k h g ) k ( k y j B j i 2 i@  ",
"h@=+C p h p +.k i |+_@&.2 i i p g B 2 ) ( k & }.1 U+B q g g j h @ 2 h E.i.i.i i l k y ' 2.U+( q k p k j p g i 2 k @ i q k b j@  ",
":@k@( k ( ( g ( ( }+:@z+p k B k C i i @ q h = E.s.i.( i k ( k q ( ( ( Y s.i.2 i k k 6 ,.l@,.k j g g p h k j g @ ( g q q i b m@  ",
"l+S 2 2 k p ( ( ( /+I.r.q g C ( b k q i k g ) >@9.b.g ( ( 2 g k ( q 2 >.1 + B g B g ) k -.b.2 B k 2 g i j g u i h k B i p l n@  ",
"N.}.2 g ) u B g q O.o@t i k 2 2 g i h u g ( 6 K.P z.u j j q h k B g h }.M.i.2 j B i y W+-.,.h i 2 i p q i ( ( ( g j g k i b z   ",
"%.p@2 ( k l p k q [+{@9.C k g ( 2 g ( u g k J q.r.|.q i q g l g k k @ o.E.U+g i i p ( U+D.b.( u g ( 2 i g i g B k k ( k p B k.  ",
"q@a.|.p 2 j B k q ] r@S _.|.C B k p 2 _.j B ) p.s@+ i k b F+b j 2 k ( K.C.r.k i W+2 c U+o.L.4.g i p p p i C k B p i q ( u g @.  ",
"[.I.z+2.r.1 U+|.+ ;.Y+-@K.b.b.t@&.2.9.b.i.2.&.a.@@u@>@-.x.(.9.s.1 1 z.W =@o@9.z.,.].].:.P+(.o &.9.&.+ U+_.&.L.&.&.b.B+b.r.Z ~+  ",
"v@w@=@x@q.y@S.z@Q.7+A H H 6./@x@n.N./@J.a.E.&+A@#.'@x (@<.C.K.x  .Z u+B@E.8.K.K.M.x.x.C@+@ @%.@@D@g..@w.l+E@N.I.Z./.Y.Y.(@p.F@  ",
"G@H@I@J@K@L@^.M@6+N@A.E+O@}@0@v+P@P@Q@Q@R@S@T@U@V@W@X@Y@Z@`@ #.#+# #@###$#Y@X@%#&#*#=#-#;#Q@>#,#'#)#!#[@1+~#{#++]#M@K@^#L@I@/#  ",
"+@F B i ( q ( @ ) y h 4 { (#z@L.q i q k k h ( i @ J i _#e.z+B j ) +.h t+J :#K.z.p i ( ( k y q h +.+.j.9.].C ( ) @ ) y +.K J K <#",
"w.F ( j @ u ( ( ( j q j 7@,@-.U++.+.q k j k ( j y B i [#e.e.B g g k i ) 6 }#(@1 ( ) @ ) i ( ( ( ( ) { |#&.2 J y g u @ ( q k p ^#",
"w.a h ( k h i i ( j k q 9 w x b j ( ( g p k g q q i k 1#a.t@p ,@k g i C ) 2#n z.g j q ) k ( ( q ( ( ~ a.r.b.h ) B 2 p ( k g 2 3#",
"4#x.|.|.j ( i i g 2 k C 4 q >@_.i u B B B g 2 ( p B ( 1#o.y.2 C ( k |.g i 2#g.U+2 k k k k k k p 2 g - q.s.C k ( ( g p _.k g C ^#",
"4#x.i q g i ( @ q +.2 p y @ q.(.i p g ( k h i p g i q :#_@t 2 C p k ( ( q 5#y+z.i j k p ( k ) j g g 7 Y e.+ ( k C k j @ k i U+6#",
"7#k@2 ( u q ( k j 2 h 2 6 8#Y.9.g p ( q q k ( 2 g h J 9#_@0#k j B q ( ( J a#I+9.( ( g h y i ( i |.k { y@e.b p i i ( k h q i p j@",
"b#z@k k h p h B B h k j 4 5.{@].k i i ( q ( k h p ( h c#n+o+C ( k B q ( q d#P+a B q p 2 ) k ( q g g c@. e.&.( B j 2 ( ( +.B i.e#",
"f#J.U+i.b.b.+ i._.C i.r.4 g#V (.z.U+_.i.b _.C C 2 1 1 G+6.}.L.z.|._.C B+C V+Z+(.i._.b.z.,._._._.U+1 7 $+#@(.i.C b.U+C i.b B+_.k.",
"f#h#i#.@r@j#H 6.n (@#@C.E.8 0.G.7#i#&@n.=@P+y+C+n k#B.- n.G.G.P+{@C++@I.(@6 l#h#Y+m#Y+E 6.L+3.6.o.n+S S n#Y+P+o#{@L+C+@@p#o./.q#",
"r#s#t#k+u#X *.v#^.w#w#w#m+}@|@1@1@2@3@4@5@5@5@5@5@5@5@5@5@5@5@5@5@5@5@5@5@5@x#R@R@R@y#y#Q@z#A#A#B#C#D#E#8#<@h.F#:.F#G#H#I#J#K#, ",
"L#{+m@M#3+N#h+4+f.<+O#O#_+p+v+P#Q#R#S#>#y#R@-#-#-#y#y#y#y#Q@y#-#z#z#-#T#U#V#y#y#Q@y#R@z#W#A#A#X#Y#$@O@f.6+E+6+Z#Z#^.Z#`# $.$+$  ",
"@$E.2 k h k k B i k ( j ( ( q & :.].g 2 k u k ( B ( ) k q +.J J y # J ,.C B+p q ) ( @ ) ( ( h ) * #$M a j q ) y h ) q t+= 6 * , ",
"M.z+2 k j 2 u b g j |.B k B B 4 y.W+_.2 2 h |.g _.i q g i g 2 g k h ( $$|.C 4.C ( B p B i l i p j %$>.U+p k B j B g i g 2 2 # &$",
"Q.*$U+k i ( g ) k k g q j h p 6 ,.P + k ( q k B 2 i h i h g i k ) ( )  +&.U+k ) q i k g B ( q g ( v+l+].( k g ( g i q ( q C j &$",
"=$}._.k j h ) g i 2 ( j i i C +.-$e.L.g 2 k B u j k 2 ( B h ( q u i ( ,.2.z.i k ( g u ) q b k C q 5+o@s.g ( ( B +.q p ( ( B k &$",
";$(.C k q u k k C k g i B 2 j +.>$E.B+C g ( B i k i B g p ( k i g B j ,$a.U+i 2 p ( g i i j g B ( S+N.L.p p k B ( g k g ( i ( &$",
"'$s@z.q h i h u i q k k k B ( K W+p.b.+.( q g i j i k B q k j i k i q y.>@..g q ( C k k u i q p J )$n ].b ) q k h k k i ( p i &$",
"'$a.1 q ( t+g g k h k ( g i k J !$o.L.k j k ) 2 j h k g ) 2 k g k k +.y.>@+ i k ( i 2 g j |.l ( q )$g.a p +.k ( k i k g k p g &$",
"~$/.].,.U++ i.i.i._.i.2 U+b i.@ h.P+a.r._.b ,.C b.U+g _.2 p p ,.i U+) -$g.p@b._.|.B C _._.g |.1 @ {$7#o+z.C 2 i.i.b g B C U+2 &$",
",+]$^@7#^$/$($^$7#.@).P+;@C+H I.c+_$h#($i#7#m#g.H.@@+@3.L+n H (@3.n Z.:$h#d.7#Y+&@n o#N.C+6.l+N.(@d+.@n#v..@D@g.I+6.<$:@>@_@E@, ",
"  , m G U U ~.1.c.u.u.u.u.u.u.u.u.u.u.u.u.u.u.u.u.u.u.u.u.u.u.u.u.u.u.u.u.u.u.u.u.u.u.u.u.u.u.u.u.u.[$6+Z#w#w#}$|$|$X X r G@1$  ",
"2$D+3$$.{$4$5$6$4+8+:+4+N@4+_+6$A.a+++9+7$(+8$8$~#9$<+9$N@f.O#9$<+++5.}+5$0$5$N 5$6$1+a+a+4+8+a+_+8@@.]+|+O.(+9+4+N@2+9+h+^#i@a$",
"o@f j q j j k j q q g i 2 ( i j k k d+!$o+2 j k i 2 k ) j q ) t+5 b$+ 1 h q ( y q B ( j @ +.i ( ) T Y b.h ( h ( B k ) q ( q k f+",
"w.u+( ( h +.y C j ( q ) k k q g q q d@c$P i.u q q q j ) ( +.h h & d$L.U+h q q h k g i ( q y k i +.~ #.b 2 k u g q g g j q q g e@",
"I.2.i B p k u p k u q g ( 2 p ( k l ~ e$o b ( p k g k ( g j C g 4 b$E.|.C |.4.g ( 2 b p p j ( 2 ( 8 n _.g k g |.C 2 C q p p B d@",
"f$l@( C k p ( i 2 g q ( @ ) B k k 2 : g$P _.k k B q ( p g i ( B ) 4.>@1 g i W+p g k g p i ( k k k ! _@|.2 ( B g q C i g i 2 g h$",
"@@l@2 i ( _.p j g j u g i k h ( k h * -+t z.g k g 2 h q 2 k B k h / -.r.( ) i 2 k g q 2 k k ( ( i * n &.@ ( g i.g ( i p g 2 _.i$",
"7#x.g k k ( g k i i k k i ( k u ( ) < #.e.W+q j ( q g q g p u i ) <@p.+ ) ) ( 2 g i q +.@ k @ B i ; C+s.C q u B u ( g i B u i.8 ",
"!@F g ( g i k B i C q q ( k g k i ) 7 $+2.b.i ( k g B l g p i g t+j$Y z.k B j l g j ( k ( j j ( # 4 .@b.C l h q ( g j i k B g 7 ",
"[.k$U+i.W+b |.1 1 i.i.b U+_.b b g |.i$l$=+9.i.C _.i.C b 2 _._._.k d$g.a i._.b._._.b C |.i.i.i.2 ( m$n$e.b.b.i.C l _.C g C 2 C o$",
"p$h#[.4#P+P+P+q${@@@n L+/@J.Q.S.q.o@r$|#l.s$p$7#b#e o@n.6.=@=@P+B.t$b#n$%@.@4#P+x@l+=@B.Y.q+E.u$Y.,$[.~@^$.@3.V q$J.p.>@}.>@n v$"};
