/* XPM */
static char * wall1_xpm[] = {
"64 64 10 1",
" 	c #3C2424",
".	c #BB9B8F",
"+	c #88685D",
"@	c #63463D",
"#	c #939717",
"$	c #376D03",
"%	c #7B7F01",
"&	c #2F3101",
"*	c #AEB232",
"=	c #565801",
"                                                                ",
".+...............................+..............................",
".+...............................+..............................",
"@  @ @        @ @ @ @ @ @@@@@ @     @ @    @ @ @    @ @ @ @@@@ @",
"@@@@+++@@@@+++@@@@@@@+++@@@@+++@@@@@+++@@@@+++@@@@@@@+++@@@@+++@",
"+@+......++@+..++.++..+@++......+@+......++@+..++.++..+@++......",
"+@+..@+....++..+...+..++....+@..+@+..@+....++..+...+..++....+@..",
"+@+..++@+......++.++......+@++..+@+..++@+......++.++......+@++..",
"+@++...++@+...+++@+++...+@++...++@++...++@+...+++@+++...+@++...+",
"+@++@@@++++@@@+++++++@@@++++@@@++@++@@@++++@@@++##$++@@@++++@@@+",
".+...............................+.............#$+..............",
".+...............................+.............#+...............",
" @+@        @   @@@@@@@@@@@      @ @        @  #@@@@@@@@@@@     ",
" @..++++++++++++++++++++++++++++ @@ @ @ @@@@@+@$#+@+++++++++++++",
" @..++++++++++++++++++++++++++++ @++++++++++++++$#++++++++++++++",
" @..++++++++++++++++++++++++++++ @..++++++++++++@#++++++++++++++",
" @..++++++++++++++++++++++++++++ @..+++++++++++++$###+++++++++++",
" @..++++++++++++++++++++++++++++ @..+++++++++++$$@@@$#++++++++++",
" @..++++++++++++++++++++++++++++ @..++++++++++$@@+++@$##++++++++",
" @..++++++++++++++++++++++++++++ @..+++++++++++++++++@@$#$+++++#",
" @..++++++++++++++++++++++++++++ @..++++++$++++++++++++@@$$$$+#$",
" @..+++++++++++++++++++++++++++  @..++++$$@++++++++++++++@@$$#$@",
" @..++++++++++++++++++++++++++@@ @..++++#@++++++++++@++++++@$$@+",
" @..+++++++++++++++++++++++++@@.@@..+++#$@+++++++++@++++++++$@++",
" @..+++++++++++++++++++++++++@.+@#$.+++#@++++++++++++.+++++$@+++",
" @..++@++++++@@+++++++++++++@@++@@##$+#$@++++++++++++++++++$$$$$",
" @..+++.++++@++++++++++++++@@@++@@@@##$@++++++++++++++++++#$@@@@",
" @..+++++++++++.++++++++++@ @@@+@@..@#@+++++++++++++++++++#@++++",
" @..+++++++++..+++++++++++ @@@@+@@..+$$@+++++++++++++++++#$@++++",
" @..+++++++++++++++++++++@  @@@+@@..++$@+++++++++++++++++#@+++++",
" @++@@@@@@@@@@@@@@@@@@@@     @@@ @..++$$@++++@+@+@+@+@@@#$@@@@@@",
"                         ##$      @@@@@$@@ @ @ @ @    ##$       ",
"                        ##$$$          $$           $##         ",
"...........+@@@@ @......#$@@@@++.+..............+.....#$@.......",
"+++++++++++.+@@@ @.+++++#$@+++++++++++++++++++++@.++++#$@+++++++",
"++++++++++++.+@@ @.+++++#$@+++++++++++++++++++++@.++++#@++++++++",
"++++++++++++++.@ @.+++++$$@+++++++++++++++++++++ .+++#$@++++++++",
"++++++++++++++++ @.+++++$@+++++++++++@++++++++++@.+++#@+++++++++",
"++++++++++++++++ @.+++++$@++++++++++++.+++++++++ .++#$@+++@@++++",
"++++++++++++++++@@.++++$@+++++++++++++++++++++++@.$#$@+++@++@+++",
"++++++++++++++++@@.++++$@+++++++++++++++++++++++ $#@@+++@+++++++",
"++++++++++++++++@@.+++$@+++++++++++++++++++$+++@$$@+++++@+++++++",
"++++++++++++++++@@.+++++++++++++++++++++++++$+++$@++++++++++.++@",
"++++++++++++++++@@.+++++++++++@@++++++++++++#@+@ .++++++++..++++",
"++++++++++++++++@@.+++++++++@  @@@+++++++++$#@++ .++++++++++++++",
"++++++++++++++++@@.++++@@       @@@@@@@@+++#$@+@ .++++++++++++++",
"@@@@@@@@@@@@@@@@@@+@@           @@@@@@@@@$#$@@@@ @@@@@@@@@@@@@@@",
"                                       $$$$                     ",
"  ..............................+  ............................@",
"  .+++++++++++++++++++++++++++++@  .+++++++++++++++++++++++++++@",
"  .+++++++++++++++++++++++++++++@  .+++++++++++++++++++++++++++@",
"  .+++++++++++++++++++++++++++++@  .+++++++++++++++++++++++++++@",
"  .+++++++++++@@++++++++++++++++@  .+++++++++++++++++++++++++++@",
"  .++++++++++@%%++++++++++++++++@  .+++++++++++++++++++++++++++@",
"& .%+++%++++++%%.+++++++++++++++@  .+++++++%+%+%++++++++@++++++@",
" &*+%+%+%+++++**++++++++++++++++= &.%+%+%+%+%+%+%+++++++%*+++++@",
"&&*%+%+%+%+++%%%+%++++@++++%+%+%@& *+%+%+%+=====+%+%+%+%%%+%+++=",
" &*+%+%%%+%+%+%%%+%+%+%*%+%+%+%+= &%%%%========%*+%+%+%+%%%+%+%@",
"&&%%+%+%+%+%+%%%+%+%+%%%+%+%%%%%=& %=&&&$======%**%%%%+%+%+%+%+=",
" &*%%+%%%%%+%+%%%+%+%+%+%%%%%%%== &%$#&&#==$#$%****%%%%+%%%%%$%=",
"&&%%%%%%%====================&$$$&$%=$#$#$##$=%*****%%%%%%%%%#%=",
"  ====================&&&$&$&$ ##$ $##########$$%%%%@====$#$##$#",
"                  $ $ $ $ $$$###################################",
"++++++++++++++++++@.+++++++++$$##$#$#########$##$#$#$+++$#######"};
