/* XPM */
static char * wall3_xpm[] = {
"64 64 233 2",
"  	c #505050",
". 	c #3E3E3E",
"+ 	c #252525",
"@ 	c #2C2C2C",
"# 	c #292929",
"$ 	c #272727",
"% 	c #262626",
"& 	c #282828",
"* 	c #242424",
"= 	c #232323",
"- 	c #1E1E1E",
"; 	c #161616",
"> 	c #101010",
", 	c #535353",
"' 	c #2E2E2E",
") 	c #2A2A2A",
"! 	c #2B2B2B",
"~ 	c #212121",
"{ 	c #222222",
"] 	c #131313",
"^ 	c #070707",
"/ 	c #2D2D2D",
"( 	c #4D4D4D",
"_ 	c #3A3A3A",
": 	c #2F2F2F",
"< 	c #1D1D1D",
"[ 	c #1C1C1C",
"} 	c #3D3D3D",
"| 	c #363636",
"1 	c #202020",
"2 	c #1B1B1B",
"3 	c #141414",
"4 	c #515151",
"5 	c #373737",
"6 	c #1A1A1A",
"7 	c #191919",
"8 	c #171717",
"9 	c #1F1F1F",
"0 	c #353535",
"a 	c #5A5A5A",
"b 	c #525252",
"c 	c #414141",
"d 	c #393939",
"e 	c #585858",
"f 	c #4E4E4E",
"g 	c #313131",
"h 	c #151515",
"i 	c #545454",
"j 	c #3B3B3B",
"k 	c #393A3A",
"l 	c #595959",
"m 	c #181818",
"n 	c #3C3C3C",
"o 	c #434343",
"p 	c #5F5F5F",
"q 	c #1A1B1B",
"r 	c #555656",
"s 	c #444444",
"t 	c #565656",
"u 	c #303030",
"v 	c #575757",
"w 	c #323232",
"x 	c #383838",
"y 	c #484848",
"z 	c #3F3F3F",
"A 	c #777777",
"B 	c #4F4F4F",
"C 	c #4C4C4C",
"D 	c #555555",
"E 	c #4A4A4A",
"F 	c #404040",
"G 	c #636363",
"H 	c #454545",
"I 	c #4B4B4B",
"J 	c #494949",
"K 	c #404041",
"L 	c #212122",
"M 	c #686868",
"N 	c #6A6A6A",
"O 	c #757575",
"P 	c #6C6C6C",
"Q 	c #6B6B6B",
"R 	c #707070",
"S 	c #727272",
"T 	c #666667",
"U 	c #6A6A6B",
"V 	c #6F6F6F",
"W 	c #717171",
"X 	c #797979",
"Y 	c #747474",
"Z 	c #6E6E6E",
"` 	c #696969",
" .	c #555556",
"..	c #464646",
"+.	c #1A1A1B",
"@.	c #060606",
"#.	c #050506",
"$.	c #080809",
"%.	c #101011",
"&.	c #0A0A0A",
"*.	c #080808",
"=.	c #090909",
"-.	c #0A0A0B",
";.	c #0C0C0C",
">.	c #0C0C0D",
",.	c #070708",
"'.	c #060607",
").	c #131314",
"!.	c #111111",
"~.	c #0E0E0E",
"{.	c #0D0D0D",
"].	c #09090A",
"^.	c #0B0B0B",
"/.	c #171718",
"(.	c #000000",
"_.	c #121212",
":.	c #1F1F20",
"<.	c #040404",
"[.	c #010101",
"}.	c #020202",
"|.	c #202121",
"1.	c #181919",
"2.	c #0F0F0F",
"3.	c #030303",
"4.	c #050505",
"5.	c #191A1A",
"6.	c #161717",
"7.	c #1F2020",
"8.	c #19191A",
"9.	c #343434",
"0.	c #161617",
"a.	c #333333",
"b.	c #070606",
"c.	c #151616",
"d.	c #202021",
"e.	c #1B1B1C",
"f.	c #1B1C1C",
"g.	c #1C1D1D",
"h.	c #1D1D1E",
"i.	c #111213",
"j.	c #1C1C1D",
"k.	c #2A2A2B",
"l.	c #2D2E2E",
"m.	c #2D2D2E",
"n.	c #2E2E2F",
"o.	c #2C2C2D",
"p.	c #131415",
"q.	c #353536",
"r.	c #0B0B0C",
"s.	c #232324",
"t.	c #424242",
"u.	c #4D4E4E",
"v.	c #3A3B3B",
"w.	c #585959",
"x.	c #4F4F50",
"y.	c #5B5B5B",
"z.	c #3D3E3E",
"A.	c #414242",
"B.	c #181819",
"C.	c #131414",
"D.	c #5E5E5E",
"E.	c #151516",
"F.	c #545455",
"G.	c #535354",
"H.	c #1E1E1F",
"I.	c #656565",
"J.	c #676767",
"K.	c #686869",
"L.	c #4C4C4D",
"M.	c #5A5B5B",
"N.	c #606060",
"O.	c #5C5C5C",
"P.	c #595A5A",
"Q.	c #5D5D5D",
"R.	c #474747",
"S.	c #424343",
"T.	c #6D6D6D",
"U.	c #363737",
"V.	c #808080",
"W.	c #7D7D7D",
"X.	c #858585",
"Y.	c #7B7B7B",
"Z.	c #7F7F7F",
"`.	c #121313",
" +	c #0B0C0C",
".+	c #0E0F0F",
"++	c #0C0D0D",
"@+	c #0D0D0E",
"#+	c #0D0E0E",
"$+	c #0E0E0F",
"%+	c #0F0F10",
"&+	c #0D0E0F",
"*+	c #0A0B0B",
"=+	c #0D0F0F",
"-+	c #141415",
";+	c #141515",
">+	c #111112",
",+	c #111212",
"'+	c #0F1010",
")+	c #090A0B",
"!+	c #121414",
"~+	c #2E2F2F",
"{+	c #040405",
"]+	c #1D1E1E",
"^+	c #363637",
"/+	c #323333",
"(+	c #373738",
"_+	c #383939",
":+	c #222223",
"<+	c #333434",
"[+	c #383839",
"}+	c #232424",
"|+	c #222323",
"1+	c #3A3A3B",
"2+	c #242425",
"3+	c #3B3B3C",
"4+	c #3C3C3D",
"5+	c #252626",
"6+	c #262627",
"7+	c #0C0D0E",
"8+	c #030404",
"9+	c #2B2B2C",
"0+	c #050606",
"a+	c #303131",
"b+	c #303031",
"c+	c #2F3030",
"d+	c #313232",
"e+	c #060707",
"f+	c #313132",
"g+	c #080909",
"h+	c #090A0A",
"i+	c #323233",
"j+	c #2B2C2D",
"  . . + @ # # # $ % % $ # & & * # $ $ $ # + + # # & & % & + + # = - - ; > , , . & = = % & # # ' % ) ) % & ! ! ~ { % % & ] ^ ^ / ",
"( _ _ ) ' ' ' / / # # { = % % / : $ $ ~ + { { # : / / * + ' ' # < [ [ ~ >     } ~ < < * # ~ ~ = = + + $ % { { < ~ { { & ' ^ ^ | ",
", ( ( ) / ' ' ' : ) ) ~ 1 = = / : = = [ 2 - - % : / / { < & & & < 2 2 * 3 4 4 5 = 2 2 < * 6 6 [ 7 8 8 1 { 1 1 1 < 9 9 * / > > 0 ",
"a ( ( * = % % * @ ' ' @ # % % ! : ) ) * - 1 1 ) : / / $ 9 { { ) ~ 1 1 & 3 b b c + 1 1 9 { [ [ 2 9 ; ; [ 9 - - < < 2 2 = % ; ; d ",
"e f f { ~ * * ~ $ 1 1 = ! ! ! @ ! & & & 1 1 1 ) ' g g : ~ ~ ~ # / ! ! ! h i i j * 9 9 = * [ [ 2 - 8 8 6 1 < < ~ 9 9 9 < * 8 8 k ",
"l b b % 1 = = ) + < < 9 ! / / * < < < 9 ~ * * % ~ % % / & + + @ / @ @ / ; , , } 9 6 6 1 { * * = 2 2 2 - ~ = = * ~ m m 7 { < < n ",
"4 ( ( @ = = = ! ! + + ! @ ' ' $ 1 ~ ~ ~ { # # % - 9 9 % @ % % = ! @ @ ' m i i o ~ [ [ 9 2 [ [ % [ [ [ ~ % = = * ~ m m m % 9 9 } ",
"e p p : ' / / $ ~ 1 1 ) / ! ! @ ! # # % 1 + + ) = < < $ ! = = 1 ~ + + @ q r r s & = = - 6 - - $ ~ ~ ~ 9 < < < ~ { 2 2 7 ~ { { n ",
"e t t u : ' ' # - - - # / * * ~ ~ 1 1 1 9 { { ~ - 6 6 % u ! ! { < + + @ [ v v d % * * 1 9 % % = 2 1 1 2 6 < < { = 6 6 7 * % % } ",
"l a a w ' : : ' ! & & / / + + = ) % % % $ + + $ = < < / u : : & { # # ! - v v x + = = < < ~ ~ 1 m - - 1 = 1 1 2 < 7 7 < & - - . ",
"4 v v u ' ' ' u ' / / / @ / / / ' : : ' ' u u : u ' ' ' u ' ' / ' ! ! ) 9 v v y ' = = - - # # * - 9 9 + & & & [ + ~ ~ & / * * z ",
", A A , B b b f C B B b 4 C C C b 4 4 t B D D b , 4 4 a b i i i f b b E F t t G   ( ( H I C C J F J J f B E E ( f     4 B y y K ",
"L M M N O P P Q R S S O N T T U V W W P N V V S X Y Y Z M O O P Q ` ` Q f / / t v e e v v e e l v  . .v t v v v t e e e v ....+.",
"@.#.#.$.%.&.&.*.^ =.=.-.&.*.*.;.>.-.-.,.'.'.'.,.@.@.@.@.'.).).!.~.>.>.~.{.;.;.{.].-.-.^.-.{.{.&.].$.$.^.,.,.,.%./.=.=.&.].&.&.].",
";.@.@.(.8 3 3 ; h ; ; ; ; ] ] ; h h h ; !.h h ; _.h h =.(.:.:.u 2 m m m m 6 6 - 7 2 2 6 m < < h h 8 8 2 !.<.<.2 ' ; ; 8 8 8 8 h ",
";.~.~.[.6 ; ; ; ; h h 3 3 3 3 h ] h h ; 3 ; ; ; h 3 3 ; }.|.|.' 8 _._.3 6 ; ; 3 ; h h m m 8 8 _.3 ; ; m [ > > 1.@ 8 8 8 m m m m ",
"~.2.2.3.6 h h h 8 h h h 8 ; ; ; 3 ; ; m ; 8 8 m m h h ; 4.~ ~ @ 7 !.!.!.; !.!.> > {.{.> h 3 3 _.3 _._.; 6 3 3 8 0 8 8 ; m 8 8 m ",
"~.~.~.@.5.m m h h 3 3 h ; 8 8 3 ; h h h h h h ; 7 h h ; =.9 9 g m ; ; 3 ; ] ] 2.h ;.;.{.3 _._._.3 > > ] 8 3 3 7 x ] ] > _.!.!.3 ",
";.;.;.@.+.m m ; h h h 3 h h h 3 ; h h h 8 ; ; 3 h ] ] 7 =.|.|.u m ] ] 3 m ] ] 2.3 {.{.~.] ] ] _.h ] ] !.h ] ] 6.| 3 3 > ] _._.3 ",
";.;.;.@.q m m 8 h h h ; ] 3 3 3 8 h h h 3 ; ; 3 3 3 3 m &.7.7.u m > > > ; 8 8 ; ] > > _.h h h 8 8 2.2.{._.8 8 8.d ; ; > !.; ; ; ",
"{.;.;.@.q 7 7 8 3 8 8 ; h ; ; h 3 h h ; h ; ; ] h ] ] h ~.9 9 9.m _._.] > > > 8 ] !.!.3 ; 8 8 ; ; !.!.;.h 8 8 0.a.m m 3 _.; ; ; ",
";.;.;.b.+.6 6 h h ; ; 3 h ] ] h h h h 3 ; h h h ; 3 3 ; 2.:.:.0 6 m m ] > !.!.m ; 3 3 ] _.> > ] ; ] ] ~.!.2 2 c.. m m m m ; ; > ",
";.;.;.*.+.2 2 3 ; ; ; 3 8 m m ; h _._.3 3 3 3 h 3 3 3 ; ~.d.d.u 7 m m h _.; ; m _.!.!._.> > > h ; _._.{.3 2 2 1.d 7 7 m m 8 8 > ",
"{.{.{.&.+.2 2 h ; ; ; 3 ; h h h h ] ] 3 h 3 3 3 h ] ] ; {.|.|.w 7 ; ; ] _.h h h ~.> > h ; ; ; !.!.!.!.2.m 7 7 /.x 7 7 m m m m 8 ",
"{.;.;.&.e.< < 8 ; h h m m 3 3 h ; 8 8 ; 3 m m m m ; ; m 3 :.:.5 ~ 7 7 _.3 8 8 2 _._._.8 2 [ [ 3 h m m m 9 [ [ /.5 7 7 m m m m m ",
"{ ~ ~ 9 f.$ $ - 1 - - - - 9 9 - - 9 9 9 < - - < - < < 9 [ d.d.F 9.g g ' : u u u / ! ! a.g g g u g a.a.a.0 g g g.s x x x w | | u ",
"7.1 1 h.i.2 2 [ < h.h.- j.g.g.< [ - - j.- 2 2 f.[ [ [ e.+.i.i.k.' ' ' ' l.' ' ' ' / / l.m.' ' / ' / / n.' o.o.p.+ # # q.@ m.m.: ",
"3 *.*.r.s.) ) * $ # # ! # $ $ ) ' % % = 1 = = % - 9 9 ^ =.o o | * 9 9 ~ = { { $ < = = - ~ & & [ [ 9 9 ~ &.^ ^ I w - - % { { { 1 ",
"{ 6 6 -.q.5 5 0 0 w w g u g g w g 9.9.w g 9.9.a.g 0 0 = *.( ( t.* ~ ~ $ $ % % & $ # # % + { { < 9 * * $ # =.=.u.9.) ) ' ' / / / ",
"* { { $.v.9.9.g | g g a.a.w w a.' 0 0 0 a.0 0 5 | w w : *.f f x = 6 6 - + 2 2 < < 7 7 * * = = 9 ~ 9 9 % ' {.{.t y ) ) / / ' ' / ",
"% * * ]._ a.a.g a.u u | | a.a.a.a.9.9.9.a.9.9.| x w w g >.B B t.= [ [ [ + 6 6 6 [ 8 8 - ~ < < < < - - { ) m m w.y % % % # $ $ : ",
"{ = = {.F | | w g w w g 0 9.9.: a.g g w a.w w a.| u u 5 ~.x.x.z & = = * = < < 6 9 8 8 7 1 [ [ 9 9 < < 9 { 8 8 y.C ~ ~ ~ { { { & ",
"{ { { !.z.0 0 9.g w w g u ' ' u 9.g g a.w 9.9.' g g g 0 ~.4 4 F ~ 2 2 9 + ~ ~ 1 < 7 7 2 9 { { { ~ 6 6 6 { [ [ e y + + 9 + & & + ",
"{ { { > t.| | | u x x a.u w w w 9.9.9.w g a.a.' a.: : 5 8     s 9 6 6 1 2 1 1 + [ [ [ 9 * * * + ~ m m 8 * 9 9 r I # # ~ = ! ! # ",
"{ { { !.A.0 0 a.g | | u u : : g w g g 9.a.g g : w / / | B.b b y % ~ ~ < 2 [ [ $ 1 - - = { - - { = 2 2 m { 1 1 e a ' ' / @ & & * ",
"{ ~ ~ C.s 0 0 w w w w g | a.a.a.u : : u u u u a.g g g | 8 , , z $ * * 1 < * * % < { { [ 2 [ [ { + 2 2 7 = $ $ D., u u ' ' $ $ - ",
"{ { { 8 ..' ' u 5 w w w 5 a.a.a.g @ @ w a.: : w ' g g a.E.F.F._ $ = = 9 < ~ ~ 1 6 [ [ < < 9 9 - 9 7 7 [ * * * l e w w : : / / $ ",
"= = = 8 y x x | w w w 5 9.' ' w w w w g w | | 9.9.u u x 1 i i H # * * [ [ + + 1 6 1 1 = $ { { 2 9 < < 9 & 1 1 G., u u ' ' u u ' ",
"! + + H.C F F w 9.: : x a.' ' a.0 | | ' : | | 9.0 : : | % b b v 0 ) ) { # : : ' { # # a.w g g # g : : 0 j / / t I.5 5 9.| 0 0 9.",
"J.K.K.L.A.D.D.M.N.O.O.y.y.O.O.P.a y.y.Q.y.t t l y.v v l R.S.S.T.T.Z Z N P P P Q M M M Q Q N N T.Q T.T.Z N p p U.V.W.W.X.V.Y.Y.Z.",
"g.`.`. +.+~.~.++;.{.{.++.+@+@+r.>.#+#+~..+>.>.++$+$+$+>.#+++++%+&+*+*+*+=+d.d.6.c.] ] 3 -+3 3 C.> ;+;+>+,+/./.'+2.,+,+%+$.)+)+!+",
"~++ + [ 9 - - - < [ [ 7 2 [ [ [ - [ [ 2 < 6 6 < - < < 2 2 < < [ 3 ] ] 2.)+0 0 @ - 2 2 9 9 9 9 = 9 { { 9 9 - - m 6 < < 1 6 {+{+]+",
"g ! ! [ - - - - - 7 7 ; 3 ; ; - 9 m m !._.3 3 m 9 - - h 3 < < 6 _.> > 8 *+^+^+% 2 3 3 m - h h 8 8 h h [ [ 2 2 7 7 7 7 9 * ^ ^ d.",
"/+: : 7 7 2 2 7 - - - [ 7 m m < 9 6 6 h ] 3 3 2 9 - - m ] 8 8 2 ] ] ] 7 >.(+(+! [ 8 8 8 < 3 3 h 8 !.!.8 7 m m 8 8 8 8 [ 1 2.2.|.",
"9.: : ; h 8 8 ; 7 ; ; 8 [ [ [ < [ 2 2 2 3 h h [ - 9 9 - 3 h h 2 < [ [ [ #+_+_+# < 7 7 [ [ ; ; h 8 !.!.3 7 8 8 7 m 8 8 8 [ !.!.:+",
"<+g g 7 3 8 8 [ 7 _._.3 < - - m _._._.3 ; m m 7 h m m < 2 7 7 < - - - - ~.[+[+! 7 3 3 7 6 [ [ [ h h h m 6 [ [ < 6 ] ] ] [ h h s.",
"~+g g - 7 7 7 [ 2 7 7 < < - - 6 m m m 8 ; 6 6 6 3 ] ] 7 < 8 8 ; 6 [ [ - %.} } / [ m m 8 h ; ; - 8 8 8 2 < 2 2 [ 2 ] ] _.< 7 7 }+",
"0 5 5 9 9 - - 7 ] ] ] 6 - 6 6 7 7 8 8 ; ] ; ; m ; !.!.7 < m m 3 ] m m < _.j j @ 9 [ [ m ; [ [ - m 2 2 ; 3 ; ; 6 [ 3 3 3 [ < < |+",
"a.0 0 1 9 9 9 < m 8 8 < - 8 8 ; ; ; ; ; ; ; ; ; 3 > > 2 9 - - m 3 6 6 < ] 1+1+% - [ [ m 8 2 2 7 3 ; ; 8 8 m m 8 7 ] ] ; < 2 2 2+",
": w w 9 - - - 9 - - - - < [ [ [ 9 - - - - - - - - [ [ - 9 - - - [ [ [ [ 3 3+3+u ~ [ [ 8 8 - - 6 h 7 7 [ 9 < < h 6 m m [ { 6 6 2+",
"~+o o : / : : / ! / / : ' ! ! ! ' ' ' g / u u : : ' ' 9.: u u u / : : ) * 4+4+c 9.w w / u w w u & u u a.| a.a.w | 9.9.5 d w w 5+",
">.0 0 x z x x 5 j } } . | 0 0 5 j j j x 5 _ _ j F } } d | F F d d 5 5 x 6+g.g.w w w w w w a.a.w g a.a.9.a.a.a.q.9.a.a.a.a.& & 7+",
"&.}.}.4.c.h h ] h h h ; h ] ] h ; 3 3 ] !.] ] 3 > !.!.}.8+~+~+* 6 8 8 m 7 7 7 < m 2 2 m 7 [ [ 3 h m m 7 *.}.}.: - 3 3 8 h h h 3 ",
"{.^.^.{+7 8 8 ; 8 h h 3 3 h h h 3 ; ; h h ; ; ; h ; ; > 8+l.l.+ h _._.8 2 ; ; ; 8 8 8 7 m ; ; _.h ; ; 6 < }.}.9+- 8 8 m m 8 8 8 ",
"~.{.{.{+5.h h h 8 h h ; 8 ; ; ; 3 8 8 8 ; 8 8 m 8 h h 3 8+~+~+~ ; > > _.8 2.2.!.2.{.{.3 3 3 3 3 _.] ] 8 < ^ ^ n.& 8 8 8 m m m m ",
"2.~.~.#.q ; ; h h h h ; 8 h h 3 ; h h h h ; ; ; m 3 3 h #.: : $ m ] ] ] ; !.!.> ] ;.;.> ] ] ] !._.> > ; 7 ;.;.a.$ _._.!._._._.; ",
";.{.{.0+[ 8 8 h h h h 3 ; ; ; 3 h h h ; ; h h h ; 3 3 m #.a+a+* m 3 3 ; 8 !.!.> ] {.{.2.3 !.!.3 ] ] ] _.8 {.{.b+$ _._.> _.!.!.3 ",
";.;.;.^ g.8 8 ; 3 ; ; h ] ] ] h 8 h h h h ; ; ] h h h 8 @.c+c++ 3 > > ] ; 8 8 ; !.> > ] h ; ; 8 h ~.~.2.3 !.!.d+) 3 3 > _.8 8 ] ",
"{.;.;.e+< 8 8 8 3 m m h h ; ; h h ; ; ; h h h ] ; ] ] 8 ].a+a+# h !.!.] > !.!.m !.!.!.h m ; ; 8 h ~.~.{.m ] ] 9+% 8 8 _.] 8 8 ; ",
";.;.;.^ ]+; ; h h ; ; 3 3 3 3 h h h h h ; h h h h ] ] 8 &.f+f+) 6 ; ; _.2._._.7 3 3 3 3 !._._.h h > > 2.3 ; ; b+u m m m m 3 3 2.",
";.;.;.=.- ; ; h ; h h h m ; ; ; 3 ] ] 3 3 3 3 ; 3 h h 8 g+w w = m 8 8 3 ] m m 8 !.3 3 !.> _._.h ; 2.2.~.8 m m c+@ m m m m 3 3 ~.",
";.{.{.h+1 3 3 h ; h h h ; 3 3 h h ] ] h h ] ] h ] 3 3 h =.i+i+= m ; ; _._.h h 3 ~._._.3 ; 3 3 !._.2.2.!.7 3 3 c+@ 7 7 m m m m 8 ",
"{.;.;.-.1 m m 8 ; h h 7 ; 3 3 ; h 8 8 h h m m 8 8 ; ; 7 '+d+d+@ < ; ; ] _.7 7 ; _.] ] 8 7 7 7 !.8 h h 7 [ ; ; j+! 7 7 m m 7 7 m ",
"- [ [ 8 :+~ ~ 2 < 6 6 [ 2 6 6 2 [ 2 2 2 6 6 6 6 [ m m [ 6.f+f+_ / ! ! % ) ) ) # * # # @ / ! ! ) / / / ' : ) ) o.F ' ' @ : @ @ # "};
