/* XPM */
static char * wall2_xpm[] = {
"64 64 256 2",
"  	c #000000",
". 	c #F8C000",
"+ 	c #F8F8F8",
"@ 	c #A04000",
"# 	c #000000",
"$ 	c #90F800",
"% 	c #F8F8F8",
"& 	c #005000",
"* 	c #000000",
"= 	c #00C0F8",
"- 	c #F8F8F8",
"; 	c #000090",
"> 	c #000000",
", 	c #00F8F8",
"' 	c #000000",
") 	c #00F8F8",
"! 	c #000000",
"~ 	c #F86000",
"{ 	c #F8F8F8",
"] 	c #780000",
"^ 	c #000000",
"/ 	c #000000",
"( 	c #00F8F8",
"_ 	c #00F8F8",
": 	c #000000",
"< 	c #F8F8F8",
"[ 	c #000000",
"} 	c #F8F8F8",
"| 	c #000000",
"1 	c #000000",
"2 	c #F8F8F8",
"3 	c #F8F8F8",
"4 	c #000000",
"5 	c #F8F8F8",
"6 	c #C0E828",
"7 	c #809830",
"8 	c #385808",
"9 	c #003000",
"0 	c #60C0F8",
"a 	c #2880A8",
"b 	c #204868",
"c 	c #001838",
"d 	c #F8F068",
"e 	c #F8B828",
"f 	c #F87818",
"g 	c #B03810",
"h 	c #800000",
"i 	c #300000",
"j 	c #402800",
"k 	c #F8F8F8",
"l 	c #F8D888",
"m 	c #F8B850",
"n 	c #D08828",
"o 	c #804800",
"p 	c #F88080",
"q 	c #C83030",
"r 	c #800000",
"s 	c #300000",
"t 	c #E8A0F8",
"u 	c #D860F8",
"v 	c #A848B8",
"w 	c #703070",
"x 	c #402040",
"y 	c #402800",
"z 	c #000000",
"A 	c #F8F8F8",
"B 	c #F89090",
"C 	c #F84848",
"D 	c #C80000",
"E 	c #800000",
"F 	c #60C0F8",
"G 	c #2880A8",
"H 	c #204868",
"I 	c #001838",
"J 	c #D0F838",
"K 	c #A0C828",
"L 	c #809830",
"M 	c #385808",
"N 	c #003000",
"O 	c #300000",
"P 	c #000000",
"Q 	c #D0F8F8",
"R 	c #F89090",
"S 	c #F84848",
"T 	c #C80000",
"U 	c #800000",
"V 	c #60C0F8",
"W 	c #2880A8",
"X 	c #204868",
"Y 	c #001838",
"Z 	c #D0F838",
"` 	c #A0C828",
" .	c #809830",
"..	c #385808",
"+.	c #003000",
"@.	c #300000",
"#.	c #806880",
"$.	c #F8F8F8",
"%.	c #B0F8B0",
"&.	c #88B088",
"*.	c #507040",
"=.	c #183800",
"-.	c #D8D8B8",
";.	c #A0A080",
">.	c #707050",
",.	c #383828",
"'.	c #F8B828",
").	c #F87818",
"!.	c #B03810",
"~.	c #680000",
"{.	c #300000",
"].	c #000000",
"^.	c #000008",
"/.	c #000030",
"(.	c #303870",
"_.	c #585888",
":.	c #6080B8",
"<.	c #98A8F8",
"[.	c #A8D8F8",
"}.	c #C8F8F8",
"|.	c #000020",
"1.	c #C8F8F8",
"2.	c #A8D8F8",
"3.	c #98A8F8",
"4.	c #6080B8",
"5.	c #585888",
"6.	c #303870",
"7.	c #F8F8F8",
"8.	c #000000",
"9.	c #000000",
"0.	c #000000",
"a.	c #000000",
"b.	c #000000",
"c.	c #000000",
"d.	c #000000",
"e.	c #000000",
"f.	c #000000",
"g.	c #000000",
"h.	c #000000",
"i.	c #000000",
"j.	c #000000",
"k.	c #000000",
"l.	c #000000",
"m.	c #000000",
"n.	c #000000",
"o.	c #000000",
"p.	c #000000",
"q.	c #000000",
"r.	c #000000",
"s.	c #000000",
"t.	c #000000",
"u.	c #000000",
"v.	c #000000",
"w.	c #000000",
"x.	c #000000",
"y.	c #000000",
"z.	c #000000",
"A.	c #000000",
"B.	c #000000",
"C.	c #000000",
"D.	c #787850",
"E.	c #F8F8F8",
"F.	c #F89090",
"G.	c #F84848",
"H.	c #C80000",
"I.	c #800000",
"J.	c #60C0F8",
"K.	c #2880A8",
"L.	c #204868",
"M.	c #001838",
"N.	c #D0F838",
"O.	c #A0C828",
"P.	c #809830",
"Q.	c #385808",
"R.	c #003000",
"S.	c #300000",
"T.	c #000008",
"U.	c #000030",
"V.	c #303870",
"W.	c #585888",
"X.	c #6080B8",
"Y.	c #98A8F8",
"Z.	c #A8D8F8",
"`.	c #C8F8F8",
" +	c #000020",
".+	c #C8F8F8",
"++	c #A8D8F8",
"@+	c #98A8F8",
"#+	c #6080B8",
"$+	c #585888",
"%+	c #303870",
"&+	c #F8F8F8",
"*+	c #000000",
"=+	c #000000",
"-+	c #000000",
";+	c #000000",
">+	c #000000",
",+	c #000000",
"'+	c #000000",
")+	c #000000",
"!+	c #000000",
"~+	c #000000",
"{+	c #000000",
"]+	c #000000",
"^+	c #000000",
"/+	c #000000",
"(+	c #000000",
"_+	c #000000",
":+	c #604060",
"<+	c #F8F8F8",
"[+	c #C0C0C0",
"}+	c #909090",
"|+	c #686868",
"1+	c #303030",
"2+	c #000000",
"3+	c #000000",
"4+	c #000000",
"5+	c #000000",
"6+	c #88D8F8",
"7+	c #68A0F8",
"8+	c #3870C0",
"9+	c #004078",
"0+	c #002840",
"a+	c #000010",
"b+	c #806880",
"c+	c #F8F8F8",
"d+	c #F8F068",
"e+	c #F8A828",
"f+	c #F84800",
"g+	c #C80000",
"h+	c #78F858",
"i+	c #58D038",
"j+	c #489030",
"k+	c #185008",
"l+	c #F8F068",
"m+	c #F8A828",
"n+	c #C86818",
"o+	c #803010",
"p+	c #480000",
"q+	c #000000",
"r+	c #609060",
"s+	c #F8F8F8",
"t+	c #F8C078",
"u+	c #E08848",
"v+	c #983020",
"w+	c #501000",
"x+	c #00A0F8",
"y+	c #0060F8",
"z+	c #0000F8",
"A+	c #000040",
"B+	c #F8F068",
"C+	c #F8B828",
"D+	c #F87818",
"E+	c #C04810",
"F+	c #800000",
"G+	c #000000",
"b b b b b b a a a a a a a a a b b b a a a a a a a a a b b b b b b b b b b b a a a a a a a a a b b b a a a a a a a a a b b b b b ",
"b 0 Q Q Q Q Q Q Q Q Q Q Q Q Q Q Q Q Q Q Q Q Q Q Q Q Q Q Q 0 0 a b 0 Q Q Q Q Q Q Q Q Q Q Q Q Q Q Q Q Q Q Q Q Q Q Q Q Q Q Q 0 0 a ",
"a Q Q Q Q Q Q 0 0 a a b Q Q Q 0 0 0 0 a a a a a b b b b b b b 0 a Q Q Q Q Q Q 0 0 a a b Q Q Q 0 0 0 0 a a a a a b b b b b b b 0 ",
"a Q Q Q Q 0 0 a a b b Q Q Q 0 a a a c c c c c b b b b b b b b 0 a Q Q Q Q 0 0 a a b b Q Q Q 0 a a a c c c c c b b b b b b b b 0 ",
"a Q Q Q 0 a b b b b Q Q Q 0 a c c c c c c c c b b b b b b b 0 0 a Q Q Q 0 a b b b b Q Q Q 0 a c c c c c c c c b b b b b b b 0 0 ",
"a Q Q 0 a b b b b Q Q Q 0 a c c c c c c c c c b b b b b b 0 b 0 a Q Q 0 a b b b b Q Q Q 0 a c c c c c c c c c b b b b b b 0 b 0 ",
"b Q 0 0 b b b b Q Q Q 0 a c c c c c c c c c b b b b b b 0 b b 0 b Q 0 0 b b b b Q Q Q 0 a c c c c c c c c c b b b b b b 0 b b 0 ",
"b Q 0 a b b b Q Q Q 0 a c c c c c c c c c c b b b b b Q b b b 0 b Q 0 a b b b Q Q Q 0 a c c c c c c c c c c b b b b b Q b b b 0 ",
"b Q 0 b b b Q Q Q 0 a c c c c c c c c c c b b b b b Q b b b b 0 b Q 0 b b b Q Q Q 0 a c c c c c c c c c c b b b b b Q b b b b 0 ",
"b Q a b b Q Q Q 0 a c c c c c c c c c c b b b b b Q b b b b b 0 b Q a b b Q Q Q 0 a c c c c c c c c c c b b b b b Q b b b b b 0 ",
"b Q a b Q Q Q 0 a c c c c c c c c c c b b b b b Q b b b b b b 0 b Q a b Q Q Q 0 a c c c c c c c c c c b b b b b Q b b b b b b 0 ",
"a Q b Q Q Q 0 a c c c c c c c c c b b b b b b Q b b b b b b b 0 a Q b Q Q Q 0 a c c c c c c c c c b b b b b b Q b b b b b b b 0 ",
"a Q Q Q Q 0 a c c c c c c c b b b b b b b b 0 b b b b b b b 0 Q a Q Q Q Q 0 a c c c c c c c b b b b b b b b 0 b b b b b b b 0 Q ",
"a Q Q Q 0 a c b b b b b b b b b b b b b b 0 b b b b b b b 0 0 Q a Q Q Q 0 a c b b b b b b b b b b b b b b 0 b b b b b b b 0 0 Q ",
"a 0 Q 0 a c b b b b b b b b b b b b b b 0 b b b b b b b 0 0 Q Q a 0 Q 0 a c b b b b b b b b b b b b b b 0 b b b b b b b 0 0 Q Q ",
"b a 0 0 0 0 0 0 0 0 0 0 0 Q Q Q Q Q Q Q Q 0 0 0 0 0 0 0 Q Q Q Q b a 0 0 0 0 0 0 0 0 0 0 0 Q Q Q Q Q Q Q Q 0 0 0 0 0 0 0 Q Q Q Q ",
"b b a a a a a a a a a b b b b b b b b b b b a a a a a a a a a b b b a a a a a a a a a b b b b b b b b b b b a a a a a a a a a b ",
"Q Q Q Q Q Q Q Q Q Q Q Q Q 0 0 a b 0 Q Q Q Q Q Q Q Q Q Q Q Q Q Q Q Q Q Q Q Q Q Q Q Q Q Q Q 0 0 a b 0 Q Q Q Q Q Q Q Q Q Q Q Q Q Q ",
"0 0 0 a a a a a b b b b b b b 0 a Q Q Q Q Q Q 0 0 a a b Q Q Q 0 0 0 0 a a a a a b b b b b b b 0 a Q Q Q Q Q Q 0 0 a a b Q Q Q 0 ",
"a a c c c c c b b b b b b b b 0 a Q Q Q Q 0 0 a a b b Q Q Q 0 a a a c c c c c b b b b b b b b 0 a Q Q Q Q 0 0 a a b b Q Q Q 0 a ",
"c c c c c c c b b b b b b b 0 0 a Q Q Q 0 a b b b b Q Q Q 0 a c c c c c c c c b b b b b b b 0 0 a Q Q Q 0 a b b b b Q Q Q 0 a c ",
"c c c c c c c b b b b b b 0 b 0 a Q Q 0 a b b b b Q Q Q 0 a c c c c c c c c c b b b b b b 0 b 0 a Q Q 0 a b b b b Q Q Q 0 a c c ",
"c c c c c c b b b b b b 0 b b 0 b Q 0 0 b b b b Q Q Q 0 a c c c c c c c c c b b b b b b 0 b b 0 b Q 0 0 b b b b Q Q Q 0 a c c c ",
"c c c c c c b b b b b Q b b b 0 b Q 0 a b b b Q Q Q 0 a c c c c c c c c c c b b b b b Q b b b 0 b Q 0 a b b b Q Q Q 0 a c c c c ",
"c c c c c b b b b b Q b b b b 0 b Q 0 b b b Q Q Q 0 a c c c c c c c c c c b b b b b Q b b b b 0 b Q 0 b b b Q Q Q 0 a c c c c c ",
"c c c c b b b b b Q b b b b b 0 b Q a b b Q Q Q 0 a c c c c c c c c c c b b b b b Q b b b b b 0 b Q a b b Q Q Q 0 a c c c c c c ",
"c c c b b b b b Q b b b b b b 0 b Q a b Q Q Q 0 a c c c c c c c c c c b b b b b Q b b b b b b 0 b Q a b Q Q Q 0 a c c c c c c c ",
"c b b b b b b Q b b b b b b b 0 a Q b Q Q Q 0 a c c c c c c c c c b b b b b b Q b b b b b b b 0 a Q b Q Q Q 0 a c c c c c c c c ",
"b b b b b b 0 b b b b b b b 0 Q a Q Q Q Q 0 a c c c c c c c b b b b b b b b 0 b b b b b b b 0 Q a Q Q Q Q 0 a c c c c c c c b b ",
"b b b b b 0 b b b b b b b 0 0 Q a Q Q Q 0 a c b b b b b b b b b b b b b b 0 b b b b b b b 0 0 Q a Q Q Q 0 a c b b b b b b b b b ",
"b b b b 0 b b b b b b b 0 0 Q Q a 0 Q 0 a c b b b b b b b b b b b b b b 0 b b b b b b b 0 0 Q Q a 0 Q 0 a c b b b b b b b b b b ",
"Q Q Q Q Q 0 0 0 0 0 0 0 Q Q Q Q b a 0 0 0 0 0 0 0 0 0 0 0 Q Q Q Q Q Q Q Q 0 0 0 0 0 0 0 Q Q Q Q b a 0 0 0 0 0 0 0 0 0 0 0 Q Q Q ",
"b b b b b b a a a a a a a a a b b b a a a a a a a a a b b b b b b b b b b b a a a a a a a a a b b b a a a a a a a a a b b b b b ",
"b 0 Q Q Q Q Q Q Q Q Q Q Q Q Q Q Q Q Q Q Q Q Q Q Q Q Q Q Q 0 0 a b 0 Q Q Q Q Q Q Q Q Q Q Q Q Q Q Q Q Q Q Q Q Q Q Q Q Q Q Q 0 0 a ",
"a Q Q Q Q Q Q 0 0 a a b Q Q Q 0 0 0 0 a a a a a b b b b b b b 0 a Q Q Q Q Q Q 0 0 a a b Q Q Q 0 0 0 0 a a a a a b b b b b b b 0 ",
"a Q Q Q Q 0 0 a a b b Q Q Q 0 a a a c c c c c b b b b b b b b 0 a Q Q Q Q 0 0 a a b b Q Q Q 0 a a a c c c c c b b b b b b b b 0 ",
"a Q Q Q 0 a b b b b Q Q Q 0 a c c c c c c c c b b b b b b b 0 0 a Q Q Q 0 a b b b b Q Q Q 0 a c c c c c c c c b b b b b b b 0 0 ",
"a Q Q 0 a b b b b Q Q Q 0 a c c c c c c c c c b b b b b b 0 b 0 a Q Q 0 a b b b b Q Q Q 0 a c c c c c c c c c b b b b b b 0 b 0 ",
"b Q 0 0 b b b b Q Q Q 0 a c c c c c c c c c b b b b b b 0 b b 0 b Q 0 0 b b b b Q Q Q 0 a c c c c c c c c c b b b b b b 0 b b 0 ",
"b Q 0 a b b b Q Q Q 0 a c c c c c c c c c c b b b b b Q b b b 0 b Q 0 a b b b Q Q Q 0 a c c c c c c c c c c b b b b b Q b b b 0 ",
"b Q 0 b b b Q Q Q 0 a c c c c c c c c c c b b b b b Q b b b b 0 b Q 0 b b b Q Q Q 0 a c c c c c c c c c c b b b b b Q b b b b 0 ",
"b Q a b b Q Q Q 0 a c c c c c c c c c c b b b b b Q b b b b b 0 b Q a b b Q Q Q 0 a c c c c c c c c c c b b b b b Q b b b b b 0 ",
"b Q a b Q Q Q 0 a c c c c c c c c c c b b b b b Q b b b b b b 0 b Q a b Q Q Q 0 a c c c c c c c c c c b b b b b Q b b b b b b 0 ",
"a Q b Q Q Q 0 a c c c c c c c c c b b b b b b Q b b b b b b b 0 a Q b Q Q Q 0 a c c c c c c c c c b b b b b b Q b b b b b b b 0 ",
"a Q Q Q Q 0 a c c c c c c c b b b b b b b b 0 b b b b b b b 0 Q a Q Q Q Q 0 a c c c c c c c b b b b b b b b 0 b b b b b b b 0 Q ",
"a Q Q Q 0 a c b b b b b b b b b b b b b b 0 b b b b b b b 0 0 Q a Q Q Q 0 a c b b b b b b b b b b b b b b 0 b b b b b b b 0 0 Q ",
"a 0 Q 0 a c b b b b b b b b b b b b b b 0 b b b b b b b 0 0 Q Q a 0 Q 0 a c b b b b b b b b b b b b b b 0 b b b b b b b 0 0 Q Q ",
"b a 0 0 0 0 0 0 0 0 0 0 0 Q Q Q Q Q Q Q Q 0 0 0 0 0 0 0 Q Q Q Q b a 0 0 0 0 0 0 0 0 0 0 0 Q Q Q Q Q Q Q Q 0 0 0 0 0 0 0 Q Q Q Q ",
"b b a a a a a a a a a b b b b b b b b b b b a a a a a a a a a b b b a a a a a a a a a b b b b b b b b b b b a a a a a a a a a b ",
"Q Q Q Q Q Q Q Q Q Q Q Q Q 0 0 a b 0 Q Q Q Q Q Q Q Q Q Q Q Q Q Q Q Q Q Q Q Q Q Q Q Q Q Q Q 0 0 a b 0 Q Q Q Q Q Q Q Q Q Q Q Q Q Q ",
"0 0 0 a a a a a b b b b b b b 0 a Q Q Q Q Q Q 0 0 a a b Q Q Q 0 0 0 0 a a a a a b b b b b b b 0 a Q Q Q Q Q Q 0 0 a a b Q Q Q 0 ",
"a a c c c c c b b b b b b b b 0 a Q Q Q Q 0 0 a a b b Q Q Q 0 a a a c c c c c b b b b b b b b 0 a Q Q Q Q 0 0 a a b b Q Q Q 0 a ",
"c c c c c c c b b b b b b b 0 0 a Q Q Q 0 a b b b b Q Q Q 0 a c c c c c c c c b b b b b b b 0 0 a Q Q Q 0 a b b b b Q Q Q 0 a c ",
"c c c c c c c b b b b b b 0 b 0 a Q Q 0 a b b b b Q Q Q 0 a c c c c c c c c c b b b b b b 0 b 0 a Q Q 0 a b b b b Q Q Q 0 a c c ",
"c c c c c c b b b b b b 0 b b 0 b Q 0 0 b b b b Q Q Q 0 a c c c c c c c c c b b b b b b 0 b b 0 b Q 0 0 b b b b Q Q Q 0 a c c c ",
"c c c c c c b b b b b Q b b b 0 b Q 0 a b b b Q Q Q 0 a c c c c c c c c c c b b b b b Q b b b 0 b Q 0 a b b b Q Q Q 0 a c c c c ",
"c c c c c b b b b b Q b b b b 0 b Q 0 b b b Q Q Q 0 a c c c c c c c c c c b b b b b Q b b b b 0 b Q 0 b b b Q Q Q 0 a c c c c c ",
"c c c c b b b b b Q b b b b b 0 b Q a b b Q Q Q 0 a c c c c c c c c c c b b b b b Q b b b b b 0 b Q a b b Q Q Q 0 a c c c c c c ",
"c c c b b b b b Q b b b b b b 0 b Q a b Q Q Q 0 a c c c c c c c c c c b b b b b Q b b b b b b 0 b Q a b Q Q Q 0 a c c c c c c c ",
"c b b b b b b Q b b b b b b b 0 a Q b Q Q Q 0 a c c c c c c c c c b b b b b b Q b b b b b b b 0 a Q b Q Q Q 0 a c c c c c c c c ",
"b b b b b b 0 b b b b b b b 0 Q a Q Q Q Q 0 a c c c c c c c b b b b b b b b 0 b b b b b b b 0 Q a Q Q Q Q 0 a c c c c c c c b b ",
"b b b b b 0 b b b b b b b 0 0 Q a Q Q Q 0 a c b b b b b b b b b b b b b b 0 b b b b b b b 0 0 Q a Q Q Q 0 a c b b b b b b b b b ",
"b b b b 0 b b b b b b b 0 0 Q Q a 0 Q 0 a c b b b b b b b b b b b b b b 0 b b b b b b b 0 0 Q Q a 0 Q 0 a c b b b b b b b b b b ",
"Q Q Q Q Q 0 0 0 0 0 0 0 Q Q Q Q b a 0 0 0 0 0 0 0 0 0 0 0 Q Q Q Q Q Q Q Q 0 0 0 0 0 0 0 Q Q Q Q b a 0 0 0 0 0 0 0 0 0 0 0 Q Q Q "};
