/* XPM */
static char * wall4_xpm[] = {
"64 64 99 2",
"  	c #2F1B01",
". 	c #311F1B",
"+ 	c #321E1D",
"@ 	c #311F1D",
"# 	c #321F1B",
"$ 	c #312019",
"% 	c #2F201D",
"& 	c #301E1A",
"* 	c #2F201B",
"= 	c #301E1C",
"- 	c #321F19",
"; 	c #311E18",
"> 	c #311E1A",
", 	c #8D6355",
"' 	c #8D6353",
") 	c #8C6554",
"! 	c #8E6454",
"~ 	c #8E6456",
"{ 	c #593831",
"] 	c #593833",
"^ 	c #8C6556",
"/ 	c #8B6455",
"( 	c #634138",
"_ 	c #64413B",
": 	c #644239",
"< 	c #906B5B",
"[ 	c #8F6B5B",
"} 	c #8F6C59",
"| 	c #8B6453",
"1 	c #906B59",
"2 	c #63403A",
"3 	c #8F6A5A",
"4 	c #90695A",
"5 	c #583730",
"6 	c #8F6A58",
"7 	c #624138",
"8 	c #573931",
"9 	c #634239",
"0 	c #8E6B58",
"a 	c #5A3932",
"b 	c #8E6A5A",
"c 	c #434343",
"d 	c #8E8E8E",
"e 	c #919191",
"f 	c #929091",
"g 	c #939192",
"h 	c #929292",
"i 	c #9B9B9B",
"j 	c #8D8D8D",
"k 	c #8F8F8F",
"l 	c #424242",
"m 	c #9C9C9C",
"n 	c #444444",
"o 	c #707070",
"p 	c #717171",
"q 	c #666666",
"r 	c #676767",
"s 	c #8A6052",
"t 	c #876051",
"u 	c #8B6757",
"v 	c #573631",
"w 	c #553631",
"x 	c #57362F",
"y 	c #8C6757",
"z 	c #886152",
"A 	c #895F51",
"B 	c #55372F",
"C 	c #623F39",
"D 	c #613E38",
"E 	c #603F38",
"F 	c #614039",
"G 	c #613F36",
"H 	c #8A6656",
"I 	c #8B6656",
"J 	c #876252",
"K 	c #906D5A",
"L 	c #62413A",
"M 	c #63423B",
"N 	c #5A3934",
"O 	c #727272",
"P 	c #8C6755",
"Q 	c #563530",
"R 	c #886054",
"S 	c #875F53",
"T 	c #8C6858",
"U 	c #33201C",
"V 	c #80594A",
"W 	c #82584A",
"X 	c #5B3A33",
"Y 	c #5C3B34",
"Z 	c #5B3A35",
"` 	c #81594D",
" .	c #32201C",
"..	c #815A4B",
"+.	c #83594D",
"@.	c #5D3A34",
"#.	c #80584C",
"$.	c #5C3933",
"%.	c #7F5A4A",
"  . . . + @ . . .           . . . . . . . .         # @ @ . $ . $ % .         . . . . . . . . .         . @ . # & * + = =       ",
"  - . $ . . $ . ;           # # # # # # # #         + . . . & # # . #         . . . . . . . . .         @ # . . # . . . .       ",
"  . + . . . . + .           . . . . . . . .         # # # # # # > $ .         . . . . . . . . .         . # . # . & # # #       ",
". , ' , ) ' , ! ~ { ] { { ] ^ , , , ~ / ~ , ( _ ( : , , , ' ^ < [ } < { ] { { ^ , , , ~ ~ / ~ , _ ( _ _ ' | ~ ~ 1 < } < < . # . ",
"# , ' , ' ' , ! ~ { ] { { ] , ~ ~ , ~ / , ~ : _ ( ( , ~ ~ ' , [ [ } < { ] { { , ~ ~ , ~ ~ / , ~ 2 : _ _ ! ! , ~ } [ } < < . # . ",
"# , ' ~ ! ' , ! ~ { ] { { ] ~ ~ , , ~ ^ / / : 2 : : ~ , , ! ~ [ [ } < { ] { { ~ ~ , , ~ ~ ^ / / _ : 2 _ ' ! ~ ' } [ } < < . # # ",
"& ^ | / | ' , ! ~ { ] { { ] ^ ^ / ^ / ~ ~ ~ : _ : ( ^ / / ) ^ < < 1 3 { ] { { ^ ^ / ^ / / ~ ~ ~ _ _ _ 2 ) | ^ ) 1 < 1 3 3 . # . ",
". 3 1 < 1 ' , ! ~ { ] { { ] < < < 4 ^ , , , ( 2 ( : 3 < < 1 < / / | ^ { ] { { < < < 4 ^ ^ , , , { { 5 { 6 1 < 1 | / | ^ ^ & . . ",
". < } [ } ' , ! ~ { ] { { ] [ [ [ < / , ~ , : _ ( 7 < [ [ } [ ~ ~ ' ~ { ] { { [ [ [ < / / , ~ , ] { { 8 < } [ } ! ~ ' , , # . . ",
". < } [ } ' , ! ~ { ] { { ] [ [ [ < ^ ~ ~ , ( _ : 9 < [ [ } [ , , ' , { ] { { [ [ [ < ^ ^ ~ ~ , ] { ] 8 < } [ 0 ' , ' , , # . . ",
". < } < 1 ' , ! ~ { ] { { ] < [ [ < ^ ~ , ^ : 2 : : < [ [ } < / , ' , { ] { { < [ [ < ^ ^ ~ , ^ ] a ] { < } b } ) , ' , , . . . ",
"c d d d d d d d d d d d d d d d d d d d d d d d d d d d d d d e e e e e e e e f g f h i i i i i e e e e h e e e d d d d d c c c ",
"c d d d d d d d d d d d d d d d d d d d d d d d d d d d d d d f f f f f f f f f f e e i i i i i f f f g f f f f d d d d d c c c ",
"c d d d d d d d d d d d d d d d j d d k d d d d k d d j j d d f f f f f f f f f e h e i i i i i f f f f f g f f d d d d d c c c ",
"l d j d j d d d d d d d d d d d d j k d d d d d d k j d d d d e e e e e e e e h e e h i i i m i e h e e h e e e j d j d d l c c ",
"n o p p p q q q q q q q q q q q q r o p p p p p p o r q q q q p p p p p p p p p p p o p p p p p q q q r o p p p p p p o o n c c ",
"c p p p p q q q q q q q q q q q r q p o p p p p o p q r r q q p p p p p p p p p p p p p p p p p q q r q p o p p p p p p p c c c ",
"c p p p p q q q q q q q q q q q q q p p p p p p p p q q q q q p p p p p p p p p p p p p p p p p q q q q p p p p p p p p p c c c ",
"c p p p p q q q q q q q q q q q q q p p p p p p p p q q q q q p p p p p p p p p p p p p p p p p q q q q p p p p p p p p p c c c ",
". s s t s u u u u v w x x w y u u y z s A z w B w v t s s s s A A s A C D E E s s z s u u y u u w x w v u u u u s t s s s . . # ",
". s s z s u u u u v w x x w u u u y z s s A w B v v z s s s s s s s s C D F C s s z s u u y u u w x w v u u u u s z s s s . . # ",
". s A z s u u u u v w x x w u u u y z s s s v B v v z s s s s A s s s G D D D s s z s u u y u u w x w v u u u u s z A s s . . # ",
". s s z s u u u H 5 v x x v u u u I J z t t v x v x z s s s A A A s s G D C C s s z s u u y u u v x v 5 H u u u s z s s s . . # ",
". , , / , } [ 1 K L M _ _ M [ [ [ < < < < < ] { ] { ^ ~ ~ ~ ! ~ ~ ~ , : 2 2 2 ~ , ^ ~ [ [ 1 } } M _ M L K 1 [ } , / , , , . . # ",
". , ! / , 1 [ 6 1 _ _ : : _ 1 1 1 } } } } } ] { ] { ^ ! ! ~ ! ~ ' ~ ~ : _ _ _ ~ , ) ! } } 1 } } _ : _ _ 1 6 [ 1 , / ! , , . . # ",
". , ' / ! } [ 1 1 _ _ : : _ } } 1 } } } } } ] { ] { ~ ! ! ~ ! ' ' , ~ ( 2 _ 2 ~ ~ ^ ! } } 1 } } _ : _ _ 1 1 [ } ! / ' , , . . # ",
". ' ' ^ ' } [ 1 1 _ _ : : 2 [ [ < [ [ [ [ < ] { ] { ~ ! ! ~ ! ! ' ! ~ ( 2 _ _ ~ , ^ ~ [ [ 1 } } 2 : _ _ 1 1 [ } ' ^ ' ' ' . . # ",
". ' ' ^ ' } [ 1 1 _ _ : : 2 [ [ < [ [ [ [ < ] { ] { ~ ! ! ~ ! ! ' ! ~ ( 2 _ _ ~ , ^ ~ [ [ 1 } } 2 : _ _ 1 1 [ } ' ^ ' ' ' . . # ",
". , ' , ) } [ } 1 { ] { { { } } } } } } } } ] { ] { / ! ! , ! ! , ! / { ] { ] / , ~ / < < [ [ < _ : _ _ 1 } [ 1 ) , ' , , . . . ",
"# , ' , ' } [ } 1 { ] { { { } } } } } } } } ] { ] { ^ ~ ~ , ! ! , ~ ^ { ] { ] , , ~ / < < [ [ < _ ( 2 M 1 } [ } ' , ' , , # . . ",
"# , ' ~ ! } [ } 1 { ] { { { } } } } } } } } ] { N { ^ / / , ~ ~ , / ^ { N { ] ~ ~ , ^ < < [ [ [ _ ( _ M 1 } [ } ! ~ ' , , # . . ",
"& ^ | / | } [ } 1 { ] { { { } } } } } } } } a { { a / ! ! ~ ' ' ~ ! / a { { a / / ^ ^ 3 3 [ [ [ 2 ( _ L 1 1 < 1 | / | ^ ^ & . . ",
". 3 1 < 1 } [ } 1 { ] { { { } } } } } } } } 2 : _ 2 ! ' ' , ! ! , ' ! 2 _ : 2 < < < 3 < < < < < { { { a / ) / ) 1 < 1 3 3 . # . ",
". < } [ } } [ } 1 { ] { { { } } } } } } } } _ : 2 _ ' ! ! , ' ' , ! ' _ 2 : _ [ [ [ [ < < < < < ] { ] { ~ ~ , ~ } [ } < < . # # ",
". < } [ } } [ } 1 { ] { { { } } } } } } } } _ : _ _ ' ! ! , ! ! , ! ' _ _ : _ [ [ [ [ < < < < [ ] { ] { , , , ! } [ } < < . # . ",
". < } < 1 } [ } 1 { ] { { { } } } } } } } } _ : _ 2 ! ' ' , | | , ' ! 2 _ : _ < < [ [ < < < [ [ ] { ] { / ! ~ ) 1 < } < < . # . ",
". < } < 1 < [ } < { ] { { { < < [ [ < < [ [ _ : _ 2 ! ' ' , | | , ' ! 2 _ : _ } } } } } } } } } ] { ] { ~ ! , ' } [ 1 [ [ . . # ",
". < } [ } [ [ } < { ] { { { [ [ [ [ < < < [ _ : _ _ ' ! ! , ! ! , ! ' _ _ : _ } } } } } } } } } ] { ] { ~ ! , ' } [ 1 [ [ . . # ",
". < } [ } [ [ } < { ] { { { [ [ [ [ < < < < _ : 2 _ ' ! ! , ' ' , ! ' _ 2 : _ } } } } } } } } } ] { ] { ~ ! , ' } [ 1 [ [ . . # ",
". 3 1 < 1 < < 1 3 { ] { { { < < < 3 < < < < 2 : _ 2 ! ' ' , ! ! , ' ! 2 _ : 2 } } } } } } } } } ] { ] { ~ ! , ' } [ 1 [ [ . . # ",
"& ^ | / | / / | ^ { ] { { { / / ^ ^ 3 [ [ [ a { { a / ! ! ~ ' ' ~ ! / a { { a } } } } } } } } } ] { ] { ~ ! , ' } [ 1 [ [ . . # ",
"# , ' ~ ! ~ ~ ' ~ { ] { { { ~ ~ , ^ < [ [ [ ] { N { ^ / / , ~ ~ , / ^ { N { ] } } } } } } } } } ] { ] { ~ ! , ' } [ 1 [ [ . . # ",
"# , ' , ' , , ' , { ] { { { , , ~ / < [ [ < ] { ] { ^ ~ ~ , ! ! , ~ ^ { ] { ] } } } } } } } } } ] { ] { ~ ! , ' } [ 1 [ [ . . # ",
". , ' , ) / , ' , { ] { { { / , ~ / < [ [ < ] { ] { / ! ! , ! ! , ! / { ] { ] } } } } } } } } } ] { ] { ~ ! , ' } [ 1 [ [ . . # ",
"c d d d d d d d d d d d d d d d d d d d d d d d d d e f f f g f f f e d d d d f g f h i i i i i g f f e d d d d d d d d d c c c ",
"c d d d d d d d d d d d d d d d d d d d d d d d d d e e e f f f f e e d d d d f f e e i i i i i f f e e d d d d d d d d d c c c ",
"c d d d d d d d d d d d d d d d d d d d d d d d d d h e e e f f e h e d d d d f e h e i i i i i f e e h d d d d d d d d d c c c ",
"l d j d j d d d d d d d d d d d d d d d d d d d d d e h h e e e e e e k d d d h e e h i i i m i e e h e d d d d j d j d d l c c ",
"n o p p p q q q q q q q q q q q q q q q q q p p p p q q q q q p p p p p p p p p p p o p p p p p q q q q p p p p p p p o o n c c ",
"c p p p p q q q q q q q q q q q q q q q q q p p p O q q q q q p p p p p p p p p p p p p p p p p q q q q O p p p p p p p p c c c ",
"c p p p p q q q q q q q q q q q q q q q q q p p p p q q q q q p p p p p p p p p p p p p p p p p q q q q p p p p p p p p p c c c ",
"c p p p p q q q q q q q q q q q q q q q q q p p p p q q q q q p p p p p p p p p p p p p p p p p q q q q p p p p p p p p p c c c ",
". y u y P s A s z x Q w w x s s s s s s s s x w Q x z s s A s s A s z x Q w x s s s s s s s s s x w Q x z s A s s s s R R # # . ",
". y u u u s s s z x v w w x s s s s s s s s x w v x z s s s s s s s z x v w x s s s s s s s s s x w v x z s s s s A s R R # . . ",
"& y u u u s s A z x v v v x s s s s s s s s x v v x z A A s s s s A z x v v x s s s s s s s s s x v v x z A s s s A z S S # . . ",
". y T y u z s s z x Q v v x s s s s s s s s x v Q x z s s s z z s s z x Q v x s s s s s s s s s x v Q x z s s z z s z S S U . . ",
". V V V V V W W V X Y Z Z Y V V V V V V V V Y Z Y X V W W W V V W W V X Y Z Y V V V V V V V V V Y Z Y X V W W V V W V ` ` & . . ",
" .V ..+.V V ....V Y X X X @.V V V V V V V V @.X X Y V ......V V ....V Y X X @.V V V V V V V V V @.X X Y V ....V V ..V #.#.. . . ",
". V V #.V V V ..V Y X Y Y $.V V V V V V V V $.Y X Y V ....V V V V ..V Y X Y $.V V V V V V V V V $.Y X Y V ..V V V ....#.#.. . . ",
". V V ` %.#...V V Y Y X X @.V V V V V V V V @.X Y Y V V V ..#.#...V V Y Y X @.V V V V V V V V V @.X Y Y V V ..#...V V #.#.. . . ",
". . . . # . . > # . . # # # . # . # # . # # # . . . . & & . # # # . . . . . . & . # & . . . . . . . . . . . . . . . . . . . . . ",
". . . . . . . . . . . . . # > . # . . # . # . . . . . . . . . . . . . . . . . . . . . . . . . . # # # # # # # # # # . . . . . # ",
". . . . . # # . . . . . . . . # . . . . . . . . . & .  . .. . . . . . . . . . . . . . . . . . . . . . . . . . . # # # . . . # # ",
". . # . . # . . . . # # # # . # . # # . # . & . . . . . . . . . . . # # # # # . # U # # # > # # . . . . . . . . . . . . . . . . "};
